<?xml version="1.0" encoding="UTF-8"?>
<svg version="1.1" xmlns="http://www.w3.org/2000/svg" width="512" height="512">
<path d="M0 0 C2.74365234 1.37255859 2.74365234 1.37255859 5.5859375 3.1484375 C7.20435547 4.14713867 7.20435547 4.14713867 8.85546875 5.16601562 C9.71277588 5.70415894 9.71277588 5.70415894 10.58740234 6.25317383 C13.05225642 7.80001957 15.53026363 9.32519915 18.00787354 10.85150146 C19.3217643 11.66092453 20.63502711 12.4713677 21.94769287 13.28277588 C28.57882193 17.37591863 35.27852853 21.3498634 41.98846436 25.31204224 C52.95064758 31.78600689 63.87404643 38.31971513 74.75 44.9375 C75.90353814 45.63863379 77.05710222 46.3397249 78.21069336 47.04077148 C83.50643138 50.26080468 88.79734477 53.48842646 94.08203125 56.7265625 C95.90871079 57.83877719 97.73552475 58.95077113 99.5625 60.0625 C100.38395508 60.56966553 101.20541016 61.07683105 102.05175781 61.59936523 C102.7990918 62.05255127 103.54642578 62.5057373 104.31640625 62.97265625 C105.28235718 63.56445679 105.28235718 63.56445679 106.26782227 64.16821289 C108.13047044 65.21643782 108.13047044 65.21643782 111 65 C112.46261978 63.44236721 112.46261978 63.44236721 113.76464844 61.31005859 C114.56327553 60.09420578 114.56327553 60.09420578 115.3780365 58.85379028 C116.23504906 57.51464066 116.23504906 57.51464066 117.109375 56.1484375 C117.70911636 55.2299704 118.30885773 54.3115033 118.92677307 53.36520386 C120.87721504 50.37444957 122.81343242 47.37475251 124.75 44.375 C126.72880396 41.33463702 128.71130539 38.29670788 130.69404602 35.25891113 C131.99673632 33.26253335 133.29824547 31.26538434 134.59855652 29.26745605 C139.41733795 21.86774913 144.31234385 14.5284017 149.3125 7.25 C149.91481445 6.37263184 150.51712891 5.49526367 151.13769531 4.59130859 C152.42191002 2.72531876 153.71027879 0.86218814 155 -1 C158.37052055 0.12350685 158.69333942 0.61673753 160.54248047 3.47021484 C161.27423241 4.58565674 161.27423241 4.58565674 162.02076721 5.72363281 C162.81099525 6.95484863 162.81099525 6.95484863 163.6171875 8.2109375 C164.1782872 9.06993652 164.7393869 9.92893555 165.31748962 10.81396484 C167.17708341 13.6630907 169.02580218 16.51911816 170.875 19.375 C173.49682173 23.39876606 176.12493307 27.41840372 178.75390625 31.4375 C179.42924911 32.47127777 180.10459198 33.50505554 180.80039978 34.57015991 C185.50303601 41.75502994 190.27130705 48.89239691 195.08984375 56 C195.74176697 56.96193268 196.39369019 57.92386536 197.06536865 58.91494751 C199.59099616 62.63789284 202.11884458 66.35926321 204.65594482 70.07440186 C222.91707315 96.81760709 222.91707315 96.81760709 227.75 109.8125 C228.03311035 110.55604736 228.3162207 111.29959473 228.60791016 112.06567383 C237.87736923 137.24496291 240.8726371 167.65060913 229.62255859 192.4909668 C225.76001262 200.55432873 220.91436895 207.75196326 214.00497818 213.48518753 C208.68572033 217.92193996 204.50735128 221.85276998 203.64206934 228.97228765 C203.42148251 232.82964963 203.4618953 236.65754104 203.54589844 240.51855469 C203.53940837 242.25431958 203.5276375 243.99007145 203.5110321 245.72576904 C203.48105028 250.40381169 203.52426688 255.07856601 203.58134365 259.75624752 C203.6284602 264.65698566 203.60728236 269.5574356 203.59356689 274.45831299 C203.57790348 283.7232708 203.62303221 292.98687948 203.69038892 302.25156522 C203.76413002 312.80548073 203.76951487 323.35909193 203.76935911 333.9132247 C203.77055991 355.6093553 203.85937326 377.30436357 204 399 C209.28 399 214.56 399 220 399 C220 409.56 220 420.12 220 431 C225.28 431 230.56 431 236 431 C236 446.84 236 462.68 236 479 C77.6 479 -80.8 479 -244 479 C-244 463.16 -244 447.32 -244 431 C-238.72 431 -233.44 431 -228 431 C-228 420.44 -228 409.88 -228 399 C-222.72 399 -217.44 399 -212 399 C-212 340.92 -212 282.84 -212 223 C-217.28 223 -222.56 223 -228 223 C-228 212.44 -228 201.88 -228 191 C-233.28 191 -238.56 191 -244 191 C-248.56379537 147.57122412 -248.56379537 147.57122412 -241.76757812 138.31689453 C-235.57667863 132.53262744 -227.95741314 129.65926962 -220.140625 126.70410156 C-213.66854147 124.17014082 -207.89313515 120.39347856 -202.00878906 116.73822021 C-198.65919975 114.67352897 -195.26445127 112.68579751 -191.875 110.6875 C-184.55064897 106.34505694 -177.27001309 101.93263084 -170 97.5 C-159.36671155 91.01673213 -148.6763327 84.63522658 -137.95898438 78.29199219 C-128.60315969 72.75294929 -119.28309988 67.16003861 -110 61.5 C-100.04179409 55.4283396 -90.03685365 49.44072093 -80 43.5 C-70.49914533 37.8759047 -61.01948134 32.22082515 -51.58868408 26.47991943 C-49.88882997 25.44591265 -48.18734088 24.41459524 -46.48583984 23.38330078 C-40.93560706 20.01689652 -35.3986658 16.6322798 -29.88803101 13.20137024 C-27.14046209 11.49457993 -24.3846893 9.80133646 -21.62750244 8.11013794 C-20.30446862 7.29409436 -18.98515562 6.47198373 -17.66986084 5.64352417 C-15.84376921 4.49405921 -14.00588497 3.3662179 -12.1640625 2.2421875 C-11.11686035 1.5910498 -10.0696582 0.93991211 -8.99072266 0.26904297 C-5.36103402 -1.27113022 -3.74464646 -1.13634906 0 0 Z " fill="#A1A0A9" transform="translate(260,17)"/>
<path d="M0 0 C29.2744184 -0.33928554 58.54853448 -0.60774336 87.82451647 -0.76597994 C91.28283524 -0.78473994 94.74115004 -0.80415484 98.19946289 -0.82397461 C99.23216972 -0.82987659 99.23216972 -0.82987659 100.28573931 -0.83589781 C111.42533569 -0.90112218 122.56376781 -1.01936147 133.70267408 -1.15729194 C145.13733197 -1.29770085 156.57104628 -1.37978578 168.0065909 -1.41132742 C174.42827892 -1.43088141 180.84732915 -1.47680652 187.26817131 -1.58595085 C193.31419381 -1.68788974 199.35649717 -1.71915493 205.40329742 -1.69661522 C207.6202143 -1.70073713 209.8372573 -1.73051898 212.05343056 -1.78808212 C228.41182034 -2.19208201 228.41182034 -2.19208201 232.75869298 1.48954082 C236.12336526 5.5806351 238.00098093 10.13837983 240 15 C250.88331428 30.99292387 270.03377572 42.34790153 288.66015625 46.3125 C301.78821338 48.66827862 314.89222982 46.63847127 328 45 C328 98.79 328 152.58 328 208 C314.8 208 301.6 208 288 208 C288 218.56 288 229.12 288 240 C261.6 240 235.2 240 208 240 C208 192.48 208 144.96 208 96 C165.76 96 123.52 96 80 96 C80 143.52 80 191.04 80 240 C53.6 240 27.2 240 0 240 C0 229.44 0 218.88 0 208 C-5.28 208 -10.56 208 -16 208 C-16 149.92 -16 91.84 -16 32 C-10.72 32 -5.44 32 0 32 C0 21.44 0 10.88 0 0 Z " fill="#F1F1F1" transform="translate(112,208)"/>
<path d="M0 0 C42.24 0 84.48 0 128 0 C128 47.52 128 95.04 128 144 C178.16 144 228.32 144 280 144 C280 159.84 280 175.68 280 192 C129.52 192 -20.96 192 -176 192 C-176 176.16 -176 160.32 -176 144 C-117.92 144 -59.84 144 0 144 C0 96.48 0 48.96 0 0 Z " fill="#D7D7E2" transform="translate(192,304)"/>
<path d="M0 0 C3.37052055 1.12350685 3.69333942 1.61673753 5.54248047 4.47021484 C6.03031509 5.21384277 6.51814972 5.9574707 7.02076721 6.72363281 C7.81099525 7.95484863 7.81099525 7.95484863 8.6171875 9.2109375 C9.1782872 10.06993652 9.7393869 10.92893555 10.31748962 11.81396484 C12.17708341 14.6630907 14.02580218 17.51911816 15.875 20.375 C18.49682173 24.39876606 21.12493307 28.41840372 23.75390625 32.4375 C24.42924911 33.47127777 25.10459198 34.50505554 25.80039978 35.57015991 C30.50303601 42.75502994 35.27130705 49.89239691 40.08984375 57 C40.74176697 57.96193268 41.39369019 58.92386536 42.06536865 59.91494751 C44.59099616 63.63789284 47.11884458 67.35926321 49.65594482 71.07440186 C67.91707315 97.81760709 67.91707315 97.81760709 72.75 110.8125 C73.17466553 111.92782104 73.17466553 111.92782104 73.60791016 113.06567383 C82.87736923 138.24496291 85.8726371 168.65060913 74.62255859 193.4909668 C70.76001262 201.55432873 65.91436895 208.75196326 59.00497818 214.48518753 C53.68572033 218.92193996 49.50735128 222.85276998 48.64206934 229.97228765 C48.42148251 233.82964963 48.4618953 237.65754104 48.54589844 241.51855469 C48.53940837 243.25431958 48.5276375 244.99007145 48.5110321 246.72576904 C48.48105028 251.40381169 48.52426688 256.07856601 48.58134365 260.75624752 C48.6284602 265.65698566 48.60728236 270.5574356 48.59356689 275.45831299 C48.57790348 284.7232708 48.62303221 293.98687948 48.69038892 303.25156522 C48.76413002 313.80548073 48.76951487 324.35909193 48.76935911 334.9132247 C48.77055991 356.6093553 48.85937326 378.30436357 49 400 C54.28 400 59.56 400 65 400 C65 410.56 65 421.12 65 432 C70.28 432 75.56 432 81 432 C81 447.84 81 463.68 81 480 C73.08 480 65.16 480 57 480 C57 464.16 57 448.32 57 432 C33.24 432 9.48 432 -15 432 C-15 421.44 -15 410.88 -15 400 C-1.8 400 11.4 400 25 400 C25 346.21 25 292.42 25 237 C19.72 237.99 14.44 238.98 9 240 C5.73603029 240.27447018 2.7384158 240.48417788 -0.5 240.4375 C-1.68372192 240.42505249 -1.68372192 240.42505249 -2.89135742 240.41235352 C-24.16462028 239.81247526 -43.80955809 229.3664783 -58.32421875 214.0234375 C-75.55094031 193.22287394 -81.01833864 171.63782087 -79 145 C-78.20859874 138.20332872 -76.78269956 131.60052935 -75 125 C-74.81808105 124.32291992 -74.63616211 123.64583984 -74.44873047 122.94824219 C-68.2397654 100.72025823 -54.64208767 81.85176787 -41.96069336 62.92553711 C-36.79443677 55.2118646 -31.66688804 47.4735202 -26.5625 39.71875 C-25.9149324 38.73501404 -25.26736481 37.75127808 -24.60017395 36.73773193 C-21.98026319 32.75668877 -19.3610352 28.77520103 -16.74423218 24.79211426 C-14.89700725 21.9804677 -13.04819291 19.16987143 -11.19921875 16.359375 C-10.64778198 15.51870483 -10.09634521 14.67803467 -9.52819824 13.81188965 C-6.44833724 9.13288375 -3.28721294 4.53592077 0 0 Z " fill="#EC6863" transform="translate(415,16)"/>
<path d="M0 0 C2.74365234 1.37255859 2.74365234 1.37255859 5.5859375 3.1484375 C7.20435547 4.14713867 7.20435547 4.14713867 8.85546875 5.16601562 C9.71277588 5.70415894 9.71277588 5.70415894 10.58740234 6.25317383 C13.05225642 7.80001957 15.53026363 9.32519915 18.00787354 10.85150146 C19.3217643 11.66092453 20.63502711 12.4713677 21.94769287 13.28277588 C28.57864684 17.37581055 35.27816423 21.34967953 41.98791504 25.31176758 C53.49210924 32.10554458 64.94616469 38.97592441 76.35461426 45.9291687 C87.507799 52.72532944 98.73330092 59.39399835 110 66 C108.36437687 70.82226818 105.67626591 74.73607464 102.875 78.9375 C89.11188859 99.99451967 82.55159496 117.46266318 77 143 C-28.93 143 -134.86 143 -244 143 C-241.09216417 140.09216417 -238.20027338 138.18774307 -234.69140625 136.1484375 C-234.06193588 135.77743927 -233.43246552 135.40644104 -232.78392029 135.02420044 C-231.42421312 134.22328201 -230.06333365 133.42435112 -228.70141602 132.62719727 C-225.04662989 130.48755589 -221.40070695 128.33290141 -217.75390625 126.1796875 C-217.01194 125.74207092 -216.26997375 125.30445435 -215.50552368 124.85357666 C-208.63340657 120.7954718 -201.81205562 116.65806571 -195 112.5 C-184.36767044 106.01518446 -173.67630841 99.63521221 -162.95898438 93.29199219 C-153.60315969 87.75294929 -144.28309988 82.16003861 -135 76.5 C-124.36671155 70.01673213 -113.6763327 63.63522658 -102.95898438 57.29199219 C-93.60316048 51.75294976 -84.28306733 46.16009129 -75 40.5 C-63.59623732 33.54803903 -52.13343304 26.70042228 -40.62744141 19.91894531 C-34.39257337 16.23894751 -28.19390848 12.52156122 -22.07421875 8.65234375 C-20.49217651 7.65883911 -20.49217651 7.65883911 -18.87817383 6.64526367 C-16.93517623 5.41906333 -15.00072137 4.17917485 -13.0769043 2.9230957 C-12.22394775 2.38644287 -11.37099121 1.84979004 -10.4921875 1.296875 C-9.76370605 0.82604492 -9.03522461 0.35521484 -8.28466797 -0.12988281 C-5.1193486 -1.33539662 -3.24533364 -0.8888 0 0 Z " fill="#D7D6E1" transform="translate(260,17)"/>
<path d="M0 0 C42.24 0 84.48 0 128 0 C128 47.52 128 95.04 128 144 C85.76 144 43.52 144 0 144 C0 96.48 0 48.96 0 0 Z " fill="#B3B6C2" transform="translate(192,304)"/>
<path d="M0 0 C15.84 0 31.68 0 48 0 C48 58.08 48 116.16 48 176 C53.28 176 58.56 176 64 176 C64 186.56 64 197.12 64 208 C37.6 208 11.2 208 -16 208 C-16 197.44 -16 186.88 -16 176 C-10.72 176 -5.44 176 0 176 C0 117.92 0 59.84 0 0 Z " fill="#A1A1AA" transform="translate(48,240)"/>
<path d="M0 0 C0.66 0 1.32 0 2 0 C2 58.08 2 116.16 2 176 C7.28 176 12.56 176 18 176 C18 186.56 18 197.12 18 208 C23.28 208 28.56 208 34 208 C34 223.84 34 239.68 34 256 C26.08 256 18.16 256 10 256 C10 240.16 10 224.32 10 208 C-13.76 208 -37.52 208 -62 208 C-62 197.44 -62 186.88 -62 176 C-48.8 176 -35.6 176 -22 176 C-22 122.21 -22 68.42 -22 13 C-22.66 12.67 -23.32 12.34 -24 12 C-23.17757812 11.70867187 -22.35515625 11.41734375 -21.5078125 11.1171875 C-9.92854626 7.03635738 -9.92854626 7.03635738 0 0 Z " fill="#A1A0A9" transform="translate(462,240)"/>
<path d="M0 0 C63.36 0 126.72 0 192 0 C192 10.56 192 21.12 192 32 C128.64 32 65.28 32 0 32 C0 21.44 0 10.88 0 0 Z " fill="#ED6863" transform="translate(160,240)"/>
<path d="M0 0 C3.37052055 1.12350685 3.69333942 1.61673753 5.54248047 4.47021484 C6.27423241 5.58565674 6.27423241 5.58565674 7.02076721 6.72363281 C7.54758591 7.54444336 8.0744046 8.36525391 8.6171875 9.2109375 C9.1782872 10.06993652 9.7393869 10.92893555 10.31748962 11.81396484 C12.17708341 14.6630907 14.02580218 17.51911816 15.875 20.375 C18.49682173 24.39876606 21.12493307 28.41840372 23.75390625 32.4375 C24.42924911 33.47127777 25.10459198 34.50505554 25.80039978 35.57015991 C30.50303601 42.75502994 35.27130705 49.89239691 40.08984375 57 C40.74176697 57.96193268 41.39369019 58.92386536 42.06536865 59.91494751 C44.59099616 63.63789284 47.11884458 67.35926321 49.65594482 71.07440186 C67.91707315 97.81760709 67.91707315 97.81760709 72.75 110.8125 C73.17466553 111.92782104 73.17466553 111.92782104 73.60791016 113.06567383 C82.87736923 138.24496291 85.8726371 168.65060913 74.62255859 193.4909668 C69.9755473 203.19196043 63.36992702 210.74896585 55.9375 218.375 C55.45514893 218.87531738 54.97279785 219.37563477 54.47583008 219.89111328 C51.02339676 223.33481804 47.33298488 225.75989589 43 228 C42.3805249 228.33322266 41.7610498 228.66644531 41.12280273 229.00976562 C32.99111924 233.35328218 25.11702999 237.21053218 16 239 C14.2675 239.3403125 14.2675 239.3403125 12.5 239.6875 C7.66189151 240.11947397 2.85366316 240.07899271 -2 240 C-2 239.01 -2 238.02 -2 237 C-1.27296875 236.72027344 -0.5459375 236.44054687 0.203125 236.15234375 C23.27321577 226.95388448 40.40917731 212.12610645 50.6875 189.3125 C59.60843655 166.69360927 57.2121865 141.18549778 49.9375 118.4375 C49.6995874 117.67260254 49.4616748 116.90770508 49.21655273 116.11962891 C43.1933219 98.56105315 32.37573072 83.09029464 21.9375 67.9375 C20.00357275 65.10656425 18.07327778 62.27317765 16.14341736 59.43946838 C14.87369582 57.57516911 13.6029267 55.71158287 12.33106995 53.84873962 C6.33854671 45.06217407 0.51190764 36.17361593 -5.25219727 27.23608398 C-5.86377686 26.29063721 -6.47535645 25.34519043 -7.10546875 24.37109375 C-7.88120239 23.1634436 -7.88120239 23.1634436 -8.67260742 21.93139648 C-9.99081286 19.88769231 -9.99081286 19.88769231 -12 18 C-8.04 12.06 -4.08 6.12 0 0 Z " fill="#B24E4A" transform="translate(415,16)"/>
<path d="M0 0 C10.56 0 21.12 0 32 0 C32 10.56 32 21.12 32 32 C42.56 32 53.12 32 64 32 C64 42.56 64 53.12 64 64 C53.44 64 42.88 64 32 64 C32 74.56 32 85.12 32 96 C21.44 96 10.88 96 0 96 C0 85.44 0 74.88 0 64 C-10.56 64 -21.12 64 -32 64 C-32 53.44 -32 42.88 -32 32 C-21.44 32 -10.88 32 0 32 C0 21.44 0 10.88 0 0 Z " fill="#FFFFFF" transform="translate(400,128)"/>
<path d="M0 0 C7.92 0 15.84 0 24 0 C24 58.08 24 116.16 24 176 C16.08 176 8.16 176 0 176 C0 117.92 0 59.84 0 0 Z " fill="#D7D7E2" transform="translate(48,240)"/>
<path d="M0 0 C0 53.79 0 107.58 0 163 C-7.92 163 -15.84 163 -24 163 C-24 110.2 -24 57.4 -24 3 C-4 0 -4 0 0 0 Z " fill="#D6D6E1" transform="translate(440,253)"/>
<path d="M0 0 C7.92 0 15.84 0 24 0 C24 47.52 24 95.04 24 144 C16.08 144 8.16 144 0 144 C0 96.48 0 48.96 0 0 Z " fill="#868992" transform="translate(296,304)"/>
<path d="M0 0 C7.92 0 15.84 0 24 0 C24 47.52 24 95.04 24 144 C16.08 144 8.16 144 0 144 C0 96.48 0 48.96 0 0 Z " fill="#868992" transform="translate(232,304)"/>
<path d="M0 0 C6.80590522 5.36534645 11.17992825 13.01120299 12.2421875 21.62109375 C12.45908984 31.80274483 9.96229396 41.48122478 2.80859375 49.08203125 C-6.20955575 56.20927844 -15.91337849 58.39438897 -27.12890625 57.61328125 C-35.08698259 56.43630659 -40.88851038 53.81999125 -46.12890625 47.61328125 C-52.15325772 38.45986364 -52.99981856 28.31778574 -52.12890625 17.61328125 C-50.51658177 9.86060725 -47.05021647 3.8737888 -41.12890625 -1.38671875 C-28.32975384 -9.5563905 -12.36908468 -8.05692672 0 0 Z " fill="#EC6863" transform="translate(276.12890625,70.38671875)"/>
<path d="M0 0 C18.48 0 36.96 0 56 0 C56 10.56 56 21.12 56 32 C37.52 32 19.04 32 0 32 C0 21.44 0 10.88 0 0 Z " fill="#B3B6C2" transform="translate(400,416)"/>
<path d="M0 0 C18.48 0 36.96 0 56 0 C56 10.56 56 21.12 56 32 C37.52 32 19.04 32 0 32 C0 21.44 0 10.88 0 0 Z " fill="#B3B6C2" transform="translate(32,416)"/>
<path d="M0 0 C18.48 0 36.96 0 56 0 C56 10.56 56 21.12 56 32 C37.52 32 19.04 32 0 32 C0 21.44 0 10.88 0 0 Z " fill="#B3B6C2" transform="translate(32,208)"/>
<path d="M0 0 C9.88747085 -1.7708903 18.86069876 1.00100561 27.12890625 6.38671875 C33.93481147 11.7520652 38.3088345 19.39792174 39.37109375 28.0078125 C39.58799609 38.18946358 37.09120021 47.86794353 29.9375 55.46875 C22.69710147 61.19100045 14.58569686 64.1238825 5.4375 64.1875 C4.04337891 64.20876953 4.04337891 64.20876953 2.62109375 64.23046875 C-0.07488389 63.99341557 -1.69407875 63.37270136 -4 62 C-3.46375 61.7525 -2.9275 61.505 -2.375 61.25 C4.64886612 57.55322836 8.73388763 53.53222474 12.25 46.5 C15.55759599 35.47468005 15.32614398 23.29063621 10 13 C6.80791865 8.10427973 3.49110223 5.222589 -2 3 C-1.34 2.01 -0.68 1.02 0 0 Z " fill="#B24F4C" transform="translate(249,64)"/>
<path d="M0 0 C7.92 0 15.84 0 24 0 C24 10.56 24 21.12 24 32 C16.08 32 8.16 32 0 32 C0 21.44 0 10.88 0 0 Z " fill="#868992" transform="translate(456,416)"/>
<path d="M0 0 C7.92 0 15.84 0 24 0 C24 10.56 24 21.12 24 32 C16.08 32 8.16 32 0 32 C0 21.44 0 10.88 0 0 Z " fill="#868992" transform="translate(88,416)"/>
<path d="M0 0 C7.92 0 15.84 0 24 0 C24 10.56 24 21.12 24 32 C16.08 32 8.16 32 0 32 C0 21.44 0 10.88 0 0 Z " fill="#B24E4A" transform="translate(328,240)"/>
<path d="M0 0 C7.92 0 15.84 0 24 0 C24 10.56 24 21.12 24 32 C16.08 32 8.16 32 0 32 C0 21.44 0 10.88 0 0 Z " fill="#868992" transform="translate(88,208)"/>
<path d="M0 0 C0 0.66 0 1.32 0 2 C-2.64 2 -5.28 2 -8 2 C-8 1.34 -8 0.68 -8 0 C-4.71303767 -0.79953138 -3.28976808 -1.09658936 0 0 Z " fill="#C56C69" transform="translate(413,254)"/>
</svg>
