<?xml version="1.0" encoding="UTF-8"?>
<svg version="1.1" xmlns="http://www.w3.org/2000/svg" width="512" height="512">
<path d="M0 0 C0.99660645 0.19335938 1.99321289 0.38671875 3.02001953 0.5859375 C51.42148057 10.14963524 95.61559771 32.56737765 131 67 C132.00377686 67.96510498 132.00377686 67.96510498 133.02783203 68.94970703 C141.96491207 77.56407599 150.36706664 86.27314609 157.72607422 96.28173828 C159.02250666 98.03035682 160.35288718 99.74828803 161.69140625 101.46484375 C169.55567241 111.6795598 175.9411092 122.63725258 182 134 C182.66346436 135.24064209 182.66346436 135.24064209 183.34033203 136.50634766 C194.85704842 158.40949262 202.5280584 182.70059889 207 207 C207.16081055 207.80066895 207.32162109 208.60133789 207.48730469 209.42626953 C215.96347314 252.75958845 212.19896708 307.95916754 192.5625 347.92578125 C192.046875 348.61027344 191.53125 349.29476563 191 350 C189.741875 350.165 188.48375 350.33 187.1875 350.5 C184.99988282 350.76326744 184.99988282 350.76326744 183 352 C180.45411201 356.12701842 178.68703484 360.46289873 177 365 C177.66 365 178.32 365 179 365 C180.7464623 367.56832691 181.0010578 368.97517273 180.8671875 372.1171875 C179.78311086 376.97111622 177.72306422 380.41002642 175.0625 384.5625 C174.56959473 385.34826416 174.07668945 386.13402832 173.56884766 386.94360352 C166.43742194 398.19756381 158.66041227 408.86514478 150 419 C149.36320312 419.74894531 148.72640625 420.49789063 148.0703125 421.26953125 C136.25297532 434.76520621 123.51448412 447.43558025 109 458 C107.85005169 458.85649066 106.70031411 459.71326433 105.55078125 460.5703125 C97.35910474 466.6109414 88.84354922 471.97005071 80 477 C79.36819824 477.36448242 78.73639648 477.72896484 78.08544922 478.10449219 C52.05475097 493.00359858 22.63948404 502.64345522 -7 507 C-8.19882812 507.17732666 -9.39765625 507.35465332 -10.6328125 507.53735352 C-22.45883486 509.16588622 -34.20158552 509.35902287 -46.125 509.3125 C-47.11956207 509.31034485 -48.11412415 509.3081897 -49.13882446 509.30596924 C-63.62165106 509.25560229 -77.76489867 508.89634203 -92 506 C-92.99805664 505.80664062 -93.99611328 505.61328125 -95.02441406 505.4140625 C-136.11124885 497.29443184 -173.20444662 479.92470131 -206 454 C-207.03769531 453.18789063 -208.07539063 452.37578125 -209.14453125 451.5390625 C-224.71123494 438.86988389 -239.27786525 424.31201036 -251 408 C-251.8637527 406.83011544 -252.72835469 405.6608575 -253.59375 404.4921875 C-268.73707742 383.8661757 -280.8192165 361.25702873 -289 337 C-289.41306396 335.77748535 -289.41306396 335.77748535 -289.83447266 334.53027344 C-293.07255506 324.75942323 -295.60485473 314.87781263 -297.75 304.8125 C-297.94875732 303.88783936 -298.14751465 302.96317871 -298.35229492 302.01049805 C-301.62015754 285.92611466 -302.40830605 270.05961075 -302.375 253.6875 C-302.37445618 252.67798279 -302.37391235 251.66846558 -302.37335205 250.62835693 C-302.33258601 234.11876461 -301.42529309 218.20217999 -298 202 C-297.78037598 200.95811523 -297.56075195 199.91623047 -297.33447266 198.84277344 C-287.73067697 154.81348227 -267.00859536 114.94210293 -237.1875 81.25 C-236.33542969 80.28578125 -235.48335938 79.3215625 -234.60546875 78.328125 C-231.72607537 75.75523376 -229.76862899 74.76850474 -226 74 C-225.15050781 74.19335938 -224.30101562 74.38671875 -223.42578125 74.5859375 C-220.90084925 75.27434595 -220.90084925 75.27434595 -218.54296875 73.6640625 C-213.87196297 69.91379023 -213.87196297 69.91379023 -211.59765625 64.63671875 C-211.69854699 62.33113129 -211.69854699 62.33113129 -212.171875 60.17578125 C-211.89253351 56.63957191 -209.57277657 55.27619261 -207 53 C-205.86304688 51.97519531 -205.86304688 51.97519531 -204.703125 50.9296875 C-173.93562634 25.15945773 -135.07960429 8.9208966 -96 1 C-94.6085376 0.70367676 -94.6085376 0.70367676 -93.18896484 0.40136719 C-63.71172132 -5.67200857 -29.50946246 -6.04087642 0 0 Z " fill="#D7EBFC" transform="translate(302,3)"/>
<path d="M0 0 C0.99660645 0.19335938 1.99321289 0.38671875 3.02001953 0.5859375 C51.42148057 10.14963524 95.61559771 32.56737765 131 67 C132.00377686 67.96510498 132.00377686 67.96510498 133.02783203 68.94970703 C141.96491207 77.56407599 150.36706664 86.27314609 157.72607422 96.28173828 C159.02250666 98.03035682 160.35288718 99.74828803 161.69140625 101.46484375 C169.55567241 111.6795598 175.9411092 122.63725258 182 134 C182.66346436 135.24064209 182.66346436 135.24064209 183.34033203 136.50634766 C194.85704842 158.40949262 202.5280584 182.70059889 207 207 C207.16081055 207.80066895 207.32162109 208.60133789 207.48730469 209.42626953 C215.96347314 252.75958845 212.19896708 307.95916754 192.5625 347.92578125 C192.046875 348.61027344 191.53125 349.29476563 191 350 C189.741875 350.165 188.48375 350.33 187.1875 350.5 C184.99988282 350.76326744 184.99988282 350.76326744 183 352 C180.45411201 356.12701842 178.68703484 360.46289873 177 365 C177.66 365 178.32 365 179 365 C180.7464623 367.56832691 181.0010578 368.97517273 180.8671875 372.1171875 C179.78311086 376.97111622 177.72306422 380.41002642 175.0625 384.5625 C174.56959473 385.34826416 174.07668945 386.13402832 173.56884766 386.94360352 C166.43742194 398.19756381 158.66041227 408.86514478 150 419 C149.36320312 419.74894531 148.72640625 420.49789063 148.0703125 421.26953125 C136.25297532 434.76520621 123.51448412 447.43558025 109 458 C107.85005169 458.85649066 106.70031411 459.71326433 105.55078125 460.5703125 C97.35910474 466.6109414 88.84354922 471.97005071 80 477 C79.36819824 477.36448242 78.73639648 477.72896484 78.08544922 478.10449219 C52.05475097 493.00359858 22.63948404 502.64345522 -7 507 C-8.19882812 507.17732666 -9.39765625 507.35465332 -10.6328125 507.53735352 C-22.45883486 509.16588622 -34.20158552 509.35902287 -46.125 509.3125 C-47.11956207 509.31034485 -48.11412415 509.3081897 -49.13882446 509.30596924 C-63.62165106 509.25560229 -77.76489867 508.89634203 -92 506 C-92.99805664 505.80664062 -93.99611328 505.61328125 -95.02441406 505.4140625 C-136.11124885 497.29443184 -173.20444662 479.92470131 -206 454 C-207.03769531 453.18789063 -208.07539063 452.37578125 -209.14453125 451.5390625 C-224.71123494 438.86988389 -239.27786525 424.31201036 -251 408 C-251.8637527 406.83011544 -252.72835469 405.6608575 -253.59375 404.4921875 C-268.73707742 383.8661757 -280.8192165 361.25702873 -289 337 C-289.41306396 335.77748535 -289.41306396 335.77748535 -289.83447266 334.53027344 C-293.07255506 324.75942323 -295.60485473 314.87781263 -297.75 304.8125 C-297.94875732 303.88783936 -298.14751465 302.96317871 -298.35229492 302.01049805 C-301.62015754 285.92611466 -302.40830605 270.05961075 -302.375 253.6875 C-302.37445618 252.67798279 -302.37391235 251.66846558 -302.37335205 250.62835693 C-302.33258601 234.11876461 -301.42529309 218.20217999 -298 202 C-297.78037598 200.95811523 -297.56075195 199.91623047 -297.33447266 198.84277344 C-287.73067697 154.81348227 -267.00859536 114.94210293 -237.1875 81.25 C-236.33542969 80.28578125 -235.48335938 79.3215625 -234.60546875 78.328125 C-231.72607537 75.75523376 -229.76862899 74.76850474 -226 74 C-225.15050781 74.19335938 -224.30101562 74.38671875 -223.42578125 74.5859375 C-220.90084925 75.27434595 -220.90084925 75.27434595 -218.54296875 73.6640625 C-213.87196297 69.91379023 -213.87196297 69.91379023 -211.59765625 64.63671875 C-211.69854699 62.33113129 -211.69854699 62.33113129 -212.171875 60.17578125 C-211.89253351 56.63957191 -209.57277657 55.27619261 -207 53 C-205.86304688 51.97519531 -205.86304688 51.97519531 -204.703125 50.9296875 C-173.93562634 25.15945773 -135.07960429 8.9208966 -96 1 C-94.6085376 0.70367676 -94.6085376 0.70367676 -93.18896484 0.40136719 C-63.71172132 -5.67200857 -29.50946246 -6.04087642 0 0 Z M-102 56 C-102.78020508 56.23702637 -103.56041016 56.47405273 -104.36425781 56.71826172 C-133.09763455 65.48353731 -165.85026003 80.87734758 -186 104 C-186 104.66 -186 105.32 -186 106 C-184.27836601 107.70285795 -184.27836601 107.70285795 -182.125 109.4375 C-176.16878499 114.37966406 -176.16878499 114.37966406 -175.6875 119 C-176 122 -176 122 -177.0625 123.875 C-179.32390195 125.1880721 -181.25326303 125.77083872 -183.8828125 125.703125 C-188.79512618 124.07172931 -192.43902271 119.6111319 -196 116 C-200.34786964 117.56892466 -202.73552736 120.92500424 -205.5 124.4375 C-206.02118408 125.09637207 -206.54236816 125.75524414 -207.0793457 126.43408203 C-213.36342303 134.54579187 -218.7884327 143.17114471 -224 152 C-224.41378906 152.69818848 -224.82757813 153.39637695 -225.25390625 154.11572266 C-236.04738655 172.61692342 -242.95311468 193.02425209 -247 214 C-247.24339111 215.2051123 -247.24339111 215.2051123 -247.49169922 216.43457031 C-249.76991449 228.07251208 -250.26146827 239.61097535 -250.25 251.4375 C-250.24940582 252.10778229 -250.24881165 252.77806458 -250.24819946 253.46865845 C-250.07070211 305.83037848 -231.10518191 350.24247657 -198 390 C-194.7763151 388.5847237 -192.67882762 386.84095769 -190.1875 384.375 C-187.22072874 381.71818992 -186.26066484 381.04273194 -182.1875 380.375 C-179 381 -179 381 -177.0625 382.125 C-175.36737734 385.11639292 -175.35592811 386.58641899 -176 390 C-177.58419966 392.19253232 -179.30540208 394.11758959 -181.17578125 396.0703125 C-182.95437942 397.95174182 -184.48550713 399.90300987 -186 402 C-169.18379183 418.11698953 -150.00208845 430.09416756 -129 440 C-127.87207031 440.53496094 -126.74414062 441.06992187 -125.58203125 441.62109375 C-101.95236402 452.28630112 -76.17164157 457.2089334 -50.34277344 457.13037109 C-48.26750258 457.12504492 -46.19245153 457.13032878 -44.1171875 457.13671875 C7.36835848 457.16844238 56.6379968 437.56575304 94 402 C93.61328125 401.55269531 93.2265625 401.10539062 92.828125 400.64453125 C91.74737698 399.3899005 90.67210916 398.13053403 89.6015625 396.8671875 C88.30971178 395.36107861 86.97382205 393.892808 85.625 392.4375 C83.58208342 389.37312512 83.52828352 387.61649298 84 384 C86 381 86 381 89.5 380.25 C95.81559369 380.38931457 99.88045244 385.74538531 104 390 C108.24273286 388.45090917 110.47765785 385.28413037 113.125 381.8125 C113.60437012 381.19101074 114.08374023 380.56952148 114.57763672 379.92919922 C119.72618292 373.17226141 124.49190676 366.19810772 129 359 C129.56799316 358.10087891 129.56799316 358.10087891 130.14746094 357.18359375 C149.98261151 325.32349067 158.22165803 288.54962823 158.25 251.4375 C158.25067474 250.63875458 158.25134949 249.84000916 158.25204468 249.01705933 C158.23603361 237.06666873 157.6634457 225.68538081 155 214 C154.64392202 212.29049137 154.28848456 210.58084923 153.93359375 208.87109375 C146.2841374 173.38629561 129.0413865 143.67145235 106 116 C102.77664062 117.41200256 100.7213524 119.1434354 98.25 121.625 C95.37390906 124.21025028 93.53563969 125.51123594 89.625 125.625 C88.42875 125.41875 87.2325 125.2125 86 125 C83.59167906 121.38751859 83.27639145 120.26125032 84 116 C85.58188085 113.80482309 87.30491711 111.88291672 89.17578125 109.9296875 C90.95437942 108.04825818 92.48550713 106.09699013 94 104 C68.63693392 79.17449408 33.959108 59.97596713 -1 53 C-1.72993164 52.83371094 -2.45986328 52.66742188 -3.21191406 52.49609375 C-34.63985459 45.42696989 -71.2391841 46.27623893 -102 56 Z " fill="#5EB4FB" transform="translate(302,3)"/>
<path d="M0 0 C3.85544798 1.99657127 5.59805092 3.39707638 8 7 C9.56821879 15.28085388 6.40389139 21.20908943 2.3125 28.1875 C1.73032715 29.21907227 1.1481543 30.25064453 0.54833984 31.31347656 C-0.67174255 33.47049571 -1.90105162 35.62231991 -3.13916016 37.76904297 C-4.95295331 40.91831332 -6.73719819 44.08236951 -8.51171875 47.25390625 C-9.63269414 49.25267055 -10.75378519 51.25136999 -11.875 53.25 C-12.68360474 54.69306519 -12.68360474 54.69306519 -13.50854492 56.1652832 C-15.73471848 60.11078908 -17.96146565 64.01953254 -20.4765625 67.7890625 C-23.90184349 72.62841557 -23.90184349 72.62841557 -24.88671875 78.25390625 C-24.12416316 80.63529494 -23.09193644 82.7508286 -22 85 C-21.2579327 87.21816507 -20.55128828 89.44840324 -19.875 91.6875 C-19.37613281 93.27111328 -19.37613281 93.27111328 -18.8671875 94.88671875 C-16.84589471 102.14334197 -16.81674488 109.14552031 -16.8125 116.625 C-16.80025391 117.73746094 -16.78800781 118.84992188 -16.77539062 119.99609375 C-16.75550905 131.38160654 -18.29727919 141.53748196 -22.6875 152.0625 C-23.04416748 152.92883057 -23.40083496 153.79516113 -23.76831055 154.68774414 C-26.55327287 161.28045099 -29.65182323 167.28649572 -34 173 C-34.78890625 174.04285156 -35.5778125 175.08570313 -36.390625 176.16015625 C-51.55341765 195.44949584 -73.64113318 207.92343381 -98 211 C-102.25460018 211.30144997 -106.48548616 211.381384 -110.75 211.375 C-111.88308594 211.37338867 -113.01617187 211.37177734 -114.18359375 211.37011719 C-126.27246853 211.19436673 -136.9681432 208.9304728 -147.88671875 203.5390625 C-152.42808716 202.38063581 -157.14693896 206.09209489 -161.0234375 208.23828125 C-161.59829391 208.55567764 -162.17315033 208.87307404 -162.76542664 209.2000885 C-164.63693967 210.23460036 -166.50601162 211.27343504 -168.375 212.3125 C-169.6710602 213.03025945 -170.9672036 213.74786868 -172.26342773 214.46533203 C-181.51931095 219.59468871 -190.74357518 224.77926916 -199.94091797 230.01293945 C-200.8176416 230.51140381 -201.69436523 231.00986816 -202.59765625 231.5234375 C-203.35570557 231.95575684 -204.11375488 232.38807617 -204.89477539 232.83349609 C-210.46941517 235.92240121 -214.57662645 236.85367363 -221 236 C-224.66600816 233.86149524 -226.37587904 231.85257618 -228 228 C-229.45970309 219.8048098 -226.59162741 214.26570824 -222.375 207.4375 C-221.18238652 205.42258907 -219.9910259 203.40693615 -218.80078125 201.390625 C-217.86613037 199.82924805 -217.86613037 199.82924805 -216.91259766 198.23632812 C-213.68826391 192.78039652 -210.63458591 187.23010682 -207.5625 181.6875 C-206.4408404 179.66943865 -205.31722242 177.65246422 -204.19140625 175.63671875 C-203.40443359 174.22350342 -203.40443359 174.22350342 -202.6015625 172.78173828 C-200.5233601 169.1721288 -198.28228726 165.67298119 -195.99633789 162.19165039 C-194.80175014 159.56390861 -194.97786677 158.4490618 -195.875 155.75 C-196.36226562 154.66912109 -196.36226562 154.66912109 -196.859375 153.56640625 C-198.29029092 150.34684543 -199.1843996 147.08138278 -200.125 143.6875 C-200.45757812 142.51574219 -200.79015625 141.34398437 -201.1328125 140.13671875 C-201.41898438 139.10160156 -201.70515625 138.06648437 -202 137 C-202.17797119 136.40783691 -202.35594238 135.81567383 -202.53930664 135.20556641 C-205.5363347 120.85731443 -204.30114328 101.48749896 -199 88 C-198.63777344 86.9790625 -198.27554688 85.958125 -197.90234375 84.90625 C-188.92491507 61.29104779 -170.95464201 42.3265201 -148 32 C-135.81107006 27.1448759 -125.07186727 24.8196035 -111.9375 24.8125 C-110.77283203 24.80025391 -109.60816406 24.78800781 -108.40820312 24.77539062 C-97.99403026 24.75798532 -88.25434727 25.81513035 -78.5 29.5625 C-72.38353469 32.44516685 -72.38353469 32.44516685 -66.04663086 32.25 C-65.35964111 31.8375 -64.67265137 31.425 -63.96484375 31 C-63.16860596 30.53223145 -62.37236816 30.06446289 -61.55200195 29.58251953 C-60.68921631 29.06028809 -59.82643066 28.53805664 -58.9375 28 C-57.05584857 26.89125635 -55.17297241 25.78458933 -53.2890625 24.6796875 C-52.28004883 24.08510742 -51.27103516 23.49052734 -50.23144531 22.87792969 C-43.3601388 18.88472255 -36.37653899 15.08825701 -29.41577148 11.25390625 C-28.33626221 10.65707031 -27.25675293 10.06023437 -26.14453125 9.4453125 C-25.10603027 8.87119629 -24.0675293 8.29708008 -22.99755859 7.70556641 C-19.3410866 5.62508804 -15.78359461 3.40494683 -12.24975586 1.12304688 C-8.25184098 -0.8726567 -4.32014033 -0.88637362 0 0 Z " fill="#020203" transform="translate(366,138)"/>
<path d="M0 0 C0.78358887 0.13390137 1.56717773 0.26780273 2.37451172 0.40576172 C35.19193553 6.20948619 66.94146447 21.45262174 93 42 C93.9590625 42.74765625 94.918125 43.4953125 95.90625 44.265625 C106.02684369 52.35046709 115.72700541 61.01472984 124 71 C125.24330078 72.41152344 125.24330078 72.41152344 126.51171875 73.8515625 C133.45752479 81.76906799 139.41839092 90.07514795 145 99 C145.62455078 99.9897583 145.62455078 99.9897583 146.26171875 100.99951172 C153.27041348 112.19455372 158.9302954 123.8114746 164 136 C164.72316406 137.7325 164.72316406 137.7325 165.4609375 139.5 C178.63132024 173.72621758 182.39743803 214.83079575 176 251 C175.78996338 252.28632324 175.78996338 252.28632324 175.57568359 253.59863281 C168.62990092 295.18677704 149.33226869 333.6067022 120.53125 364.28125 C118.39184482 366.57912963 116.3398101 368.91658807 114.3125 371.3125 C110.8461458 375.28216559 107.06535473 378.65394974 103 382 C102.21858643 382.6499292 102.21858643 382.6499292 101.42138672 383.31298828 C92.34391384 390.83971558 83.0386468 397.80440853 73 404 C72.33726074 404.40959961 71.67452148 404.81919922 70.99169922 405.24121094 C26.45158981 432.31398919 -30.82278204 442.41320724 -82 432 C-83.4845166 431.70198486 -83.4845166 431.70198486 -84.99902344 431.39794922 C-105.92436401 427.06689036 -125.16307373 420.02678258 -144 410 C-145.48886719 409.23042969 -145.48886719 409.23042969 -147.0078125 408.4453125 C-161.82060952 400.63799783 -175.36953771 390.48680396 -187.66015625 379.15234375 C-189.96430584 377.03283386 -192.31995434 374.98564658 -194.6875 372.9375 C-198.84685532 369.235456 -202.42620151 365.25967901 -206 361 C-207.25103516 359.58074219 -207.25103516 359.58074219 -208.52734375 358.1328125 C-234.81729835 328.14729488 -251.34002768 290.0837092 -258 251 C-258.13132324 250.26668457 -258.26264648 249.53336914 -258.39794922 248.77783203 C-262.4594682 225.16633671 -261.54063444 198.4420039 -257 175 C-256.79117188 173.8555542 -256.79117188 173.8555542 -256.578125 172.68798828 C-249.40388039 133.95204952 -230.72133583 98.18107626 -204.1171875 69.3046875 C-202.01057905 67.01151594 -199.97496719 64.66708271 -197.9375 62.3125 C-194.235456 58.15314468 -190.25967901 54.57379849 -186 51 C-185.05382812 50.16597656 -184.10765625 49.33195312 -183.1328125 48.47265625 C-175.76073972 42.01102813 -168.0668613 36.39851725 -159.79492188 31.14355469 C-158.12941491 30.08245096 -156.47810718 28.9991493 -154.828125 27.9140625 C-132.58999934 13.63425085 -107.75330264 5.25188163 -82 0 C-81.11570313 -0.18079102 -80.23140625 -0.36158203 -79.3203125 -0.54785156 C-53.73858519 -5.49693188 -25.54900213 -4.53710782 0 0 Z M-97 19 C-97.78020508 19.23702637 -98.56041016 19.47405273 -99.36425781 19.71826172 C-128.09763455 28.48353731 -160.85026003 43.87734758 -181 67 C-181 67.66 -181 68.32 -181 69 C-179.27836601 70.70285795 -179.27836601 70.70285795 -177.125 72.4375 C-171.16878499 77.37966406 -171.16878499 77.37966406 -170.6875 82 C-171 85 -171 85 -172.0625 86.875 C-174.32390195 88.1880721 -176.25326303 88.77083872 -178.8828125 88.703125 C-183.79512618 87.07172931 -187.43902271 82.6111319 -191 79 C-195.34786964 80.56892466 -197.73552736 83.92500424 -200.5 87.4375 C-201.02118408 88.09637207 -201.54236816 88.75524414 -202.0793457 89.43408203 C-208.36342303 97.54579187 -213.7884327 106.17114471 -219 115 C-219.41378906 115.69818848 -219.82757813 116.39637695 -220.25390625 117.11572266 C-231.04738655 135.61692342 -237.95311468 156.02425209 -242 177 C-242.24339111 178.2051123 -242.24339111 178.2051123 -242.49169922 179.43457031 C-244.76991449 191.07251208 -245.26146827 202.61097535 -245.25 214.4375 C-245.24940582 215.10778229 -245.24881165 215.77806458 -245.24819946 216.46865845 C-245.07070211 268.83037848 -226.10518191 313.24247657 -193 353 C-189.7763151 351.5847237 -187.67882762 349.84095769 -185.1875 347.375 C-182.22072874 344.71818992 -181.26066484 344.04273194 -177.1875 343.375 C-174 344 -174 344 -172.0625 345.125 C-170.36737734 348.11639292 -170.35592811 349.58641899 -171 353 C-172.58419966 355.19253232 -174.30540208 357.11758959 -176.17578125 359.0703125 C-177.95437942 360.95174182 -179.48550713 362.90300987 -181 365 C-164.18379183 381.11698953 -145.00208845 393.09416756 -124 403 C-122.87207031 403.53496094 -121.74414062 404.06992187 -120.58203125 404.62109375 C-96.95236402 415.28630112 -71.17164157 420.2089334 -45.34277344 420.13037109 C-43.26750258 420.12504492 -41.19245153 420.13032878 -39.1171875 420.13671875 C12.36835848 420.16844238 61.6379968 400.56575304 99 365 C98.61328125 364.55269531 98.2265625 364.10539062 97.828125 363.64453125 C96.74737698 362.3899005 95.67210916 361.13053403 94.6015625 359.8671875 C93.30971178 358.36107861 91.97382205 356.892808 90.625 355.4375 C88.58208342 352.37312512 88.52828352 350.61649298 89 347 C91 344 91 344 94.5 343.25 C100.81559369 343.38931457 104.88045244 348.74538531 109 353 C113.24273286 351.45090917 115.47765785 348.28413037 118.125 344.8125 C118.60437012 344.19101074 119.08374023 343.56952148 119.57763672 342.92919922 C124.72618292 336.17226141 129.49190676 329.19810772 134 322 C134.56799316 321.10087891 134.56799316 321.10087891 135.14746094 320.18359375 C154.98261151 288.32349067 163.22165803 251.54962823 163.25 214.4375 C163.25067474 213.63875458 163.25134949 212.84000916 163.25204468 212.01705933 C163.23603361 200.06666873 162.6634457 188.68538081 160 177 C159.64392202 175.29049137 159.28848456 173.58084923 158.93359375 171.87109375 C151.2841374 136.38629561 134.0413865 106.67145235 111 79 C107.77664062 80.41200256 105.7213524 82.1434354 103.25 84.625 C100.37390906 87.21025028 98.53563969 88.51123594 94.625 88.625 C93.42875 88.41875 92.2325 88.2125 91 88 C88.59167906 84.38751859 88.27639145 83.26125032 89 79 C90.58188085 76.80482309 92.30491711 74.88291672 94.17578125 72.9296875 C95.95437942 71.04825818 97.48550713 69.09699013 99 67 C73.63693392 42.17449408 38.959108 22.97596713 4 16 C3.27006836 15.83371094 2.54013672 15.66742188 1.78808594 15.49609375 C-29.63985459 8.42696989 -66.2391841 9.27623893 -97 19 Z " fill="#020304" transform="translate(297,40)"/>
<path d="M0 0 C2.8880387 3.38215742 4.36490527 7.04015093 5.8125 11.1875 C6.19390137 12.27780518 6.19390137 12.27780518 6.58300781 13.39013672 C8.82427431 20.04656071 10.58880935 26.80333943 12.25 33.625 C12.61895386 35.12389771 12.61895386 35.12389771 12.99536133 36.65307617 C16.1290489 49.98449006 17.33605623 62.99156451 17.26074219 76.63354492 C17.25002379 78.93239799 17.26071109 81.23046724 17.2734375 83.52929688 C17.28316388 93.51103256 16.4871557 103.12656164 15 113 C14.86464844 113.93980713 14.72929687 114.87961426 14.58984375 115.84790039 C8.75100384 154.36844282 -9.83446262 188.76514168 -35 218 C-38.22335938 216.58799744 -40.2786476 214.8565646 -42.75 212.375 C-45.62609094 209.78974972 -47.46436031 208.48876406 -51.375 208.375 C-52.57125 208.58125 -53.7675 208.7875 -55 209 C-57.40832094 212.61248141 -57.72360855 213.73874968 -57 218 C-55.41811915 220.19517691 -53.69508289 222.11708328 -51.82421875 224.0703125 C-50.04562058 225.95174182 -48.51449287 227.90300987 -47 230 C-84.85127727 267.0490344 -136.18023822 285.20356531 -188.5625 285.25 C-189.25832184 285.25067474 -189.95414368 285.25134949 -190.67105103 285.25204468 C-202.65965488 285.23372421 -214.23661305 284.39663519 -226 282 C-226.86093262 281.82839355 -227.72186523 281.65678711 -228.60888672 281.47998047 C-259.59208288 275.13593719 -288.26823823 261.72235393 -313 242 C-314.01320313 241.20207031 -315.02640625 240.40414062 -316.0703125 239.58203125 C-324.21379463 233.06511931 -324.21379463 233.06511931 -327 229 C-325.515 228.01 -325.515 228.01 -324 227 C-322.85337891 227.72703125 -322.85337891 227.72703125 -321.68359375 228.46875 C-285.23449657 251.27684932 -247.52109927 260.3631427 -205 263 C-205.09539062 262.38656738 -205.19078125 261.77313477 -205.2890625 261.14111328 C-205.39992188 260.33399902 -205.51078125 259.52688477 -205.625 258.6953125 C-205.74101562 257.89625488 -205.85703125 257.09719727 -205.9765625 256.27392578 C-206 254 -206 254 -204 250.875 C-201 249 -201 249 -197.5 248.9375 C-194 250 -194 250 -191.6875 252 C-187.83507662 254.86691972 -183.75456806 255.2417577 -179 255 C-178.01 254.34 -177.02 253.68 -176 253 C-176.19024714 251.04495347 -176.19024714 251.04495347 -177 249 C-178.78283165 247.82815405 -178.78283165 247.82815405 -181.04296875 247.10546875 C-181.86990234 246.78900391 -182.69683594 246.47253906 -183.54882812 246.14648438 C-185.28693295 245.51479713 -187.02649006 244.88708948 -188.76757812 244.26367188 C-195.37416366 241.72424959 -199.78473052 238.43053896 -203 232 C-203.51838766 226.79912708 -203.66595399 222.38313522 -201.375 217.625 C-196.84573554 212.61897086 -192.39820856 208.58102294 -185.45703125 207.6640625 C-177.14587057 207.54129794 -171.04585535 209.60551418 -163.9375 213.8125 C-161.207875 216.89433467 -160.8565589 218.91192873 -161 223 C-163.38288186 226.39380144 -164.83840403 227.77756673 -168.9375 228.5625 C-172 228 -172 228 -174.875 226 C-178.97668854 223.37491933 -181.22022781 223.67036054 -186 224 C-186.66 225.32 -187.32 226.64 -188 228 C-187.45472656 228.17015625 -186.90945313 228.3403125 -186.34765625 228.515625 C-176.67722949 231.62338608 -166.6310127 234.91201915 -160.78515625 243.859375 C-159.78385692 246.58928562 -159.805961 248.850362 -159.875 251.75 C-159.89304687 252.73484375 -159.91109375 253.7196875 -159.9296875 254.734375 C-159.95289063 255.48203125 -159.97609375 256.2296875 -160 257 C-147.43537088 253.58028035 -135.02442411 250.03256716 -123 245 C-122.3414502 244.72494629 -121.68290039 244.44989258 -121.00439453 244.16650391 C-101.85731465 236.00794283 -84.65356218 224.64799265 -69 211 C-68.05769531 210.18660156 -67.11539062 209.37320313 -66.14453125 208.53515625 C-63.72104303 206.39722633 -61.3504199 204.21783211 -59 202 C-58.19433594 201.2471875 -57.38867188 200.494375 -56.55859375 199.71875 C-31.50215291 175.56418418 -14.80853959 143.72232377 -4 111 C-4.60996826 111.02618408 -5.21993652 111.05236816 -5.84838867 111.0793457 C-8.62782758 111.18365719 -11.40685439 111.24842982 -14.1875 111.3125 C-15.14720703 111.35439453 -16.10691406 111.39628906 -17.09570312 111.43945312 C-18.49272461 111.46362305 -18.49272461 111.46362305 -19.91796875 111.48828125 C-21.19837036 111.52755737 -21.19837036 111.52755737 -22.50463867 111.56762695 C-26.44788424 110.67064565 -27.69413021 109.33210715 -30 106 C-30.74187155 102.03176369 -30.70052939 98.121291 -30.6640625 94.09375 C-30.66884613 92.93629272 -30.67362976 91.77883545 -30.67855835 90.58630371 C-30.681957 88.14199462 -30.67275725 85.69764005 -30.65185547 83.25341797 C-30.62509277 79.51296592 -30.65160805 75.77551501 -30.68359375 72.03515625 C-30.68028965 69.65884755 -30.67388342 67.28254071 -30.6640625 64.90625 C-30.67418365 63.7884314 -30.68430481 62.67061279 -30.69473267 61.5189209 C-30.5790632 53.85265937 -30.5790632 53.85265937 -27.82202148 49.79296875 C-24.62371438 47.76092728 -22.94480702 47.37946897 -19.18359375 47.40625 C-18.08982422 47.40882813 -16.99605469 47.41140625 -15.86914062 47.4140625 C-14.17047852 47.45660156 -14.17047852 47.45660156 -12.4375 47.5 C-11.30119141 47.49742187 -10.16488281 47.49484375 -8.99414062 47.4921875 C0.1983066 47.60065295 0.1983066 47.60065295 4 51 C4.75248695 34.91907507 1.95780996 18.93698811 -0.765625 3.1328125 C-0.84296875 2.42898437 -0.9203125 1.72515625 -1 1 C-0.67 0.67 -0.34 0.34 0 0 Z " fill="#C2E0FC" transform="translate(443,175)"/>
<path d="M0 0 C2.18401561 2.45701756 2.00025362 4.01344205 2.0625 7.3125 C0.82851909 11.59513965 -0.59439127 12.88926337 -3.78515625 15.8125 C-8.73618924 20.70240912 -12.80473642 26.46142542 -17 32 C-17.63276855 32.82564453 -17.63276855 32.82564453 -18.27832031 33.66796875 C-44.05012831 67.48451109 -57.86932821 107.31448572 -64 149 C-64.10747559 149.69416016 -64.21495117 150.38832031 -64.32568359 151.10351562 C-65.41904177 159.21438811 -65.24307092 167.45551649 -65.25 175.625 C-65.25100708 176.44747223 -65.25201416 177.26994446 -65.25305176 178.11734009 C-65.19944152 242.98178244 -38.41404344 303.49992299 7.0625 349.3125 C13.08229361 355.28094458 19.21902918 360.89661311 26 366 C26.62003906 366.47469727 27.24007812 366.94939453 27.87890625 367.43847656 C78.45037948 405.99082831 141.91040121 423.63181042 205.125 415.75 C208.7637966 415.23561993 212.3823674 414.64580504 216 414 C217.15145508 413.79914795 217.15145508 413.79914795 218.32617188 413.59423828 C259.81793083 406.06769889 299.10999975 387.52984123 331 360 C331.77988281 359.33097656 332.55976563 358.66195313 333.36328125 357.97265625 C345.82034766 347.02430165 357.16381994 335.3523492 367 322 C367.42087891 321.43990234 367.84175781 320.87980469 368.27539062 320.30273438 C373.97855681 312.70727342 379.01588955 304.86786324 383.68969727 296.59643555 C384.07955811 295.91105713 384.46941895 295.22567871 384.87109375 294.51953125 C385.21068115 293.91214111 385.55026855 293.30475098 385.90014648 292.67895508 C387.09944499 290.84819462 388.35534821 289.44227462 390 288 C393.46449284 287.28754381 396.85534758 287.33536311 399.9375 289.125 C401.42868394 291.75650108 401.72728679 293.99278403 402 297 C401.13671875 299.4296875 401.13671875 299.4296875 399.6875 301.875 C399.12933594 302.82375 398.57117188 303.7725 397.99609375 304.75 C397.33738281 305.8225 396.67867188 306.895 396 308 C395.24060868 309.27066799 394.48150836 310.54150992 393.72265625 311.8125 C388.71720586 320.09492163 383.34399687 327.94136219 377.24902344 335.45849609 C376.04191622 336.94826837 374.85263672 338.45243144 373.6640625 339.95703125 C360.9372982 355.59449086 346.37810489 370.21109496 330 382 C328.85335128 382.85176801 327.70753275 383.70465463 326.5625 384.55859375 C318.36932634 390.60664558 309.84832238 395.96733588 301 401 C300.36819824 401.36448242 299.73639648 401.72896484 299.08544922 402.10449219 C273.05475097 417.00359858 243.63948404 426.64345522 214 431 C212.80117188 431.17732666 211.60234375 431.35465332 210.3671875 431.53735352 C198.54116514 433.16588622 186.79841448 433.35902287 174.875 433.3125 C173.88043793 433.31034485 172.88587585 433.3081897 171.86117554 433.30596924 C157.37834894 433.25560229 143.23510133 432.89634203 129 430 C128.00194336 429.80664062 127.00388672 429.61328125 125.97558594 429.4140625 C84.88875115 421.29443184 47.79555338 403.92470131 15 378 C13.96230469 377.18789063 12.92460938 376.37578125 11.85546875 375.5390625 C-3.71123494 362.86988389 -18.27786525 348.31201036 -30 332 C-30.8637527 330.83011544 -31.72835469 329.6608575 -32.59375 328.4921875 C-47.73707742 307.8661757 -59.8192165 285.25702873 -68 261 C-68.41306396 259.77748535 -68.41306396 259.77748535 -68.83447266 258.53027344 C-72.07255506 248.75942323 -74.60485473 238.87781263 -76.75 228.8125 C-76.94875732 227.88783936 -77.14751465 226.96317871 -77.35229492 226.01049805 C-80.62015754 209.92611466 -81.40830605 194.05961075 -81.375 177.6875 C-81.37445618 176.67798279 -81.37391235 175.66846558 -81.37335205 174.62835693 C-81.33258601 158.11876461 -80.42529309 142.20217999 -77 126 C-76.78037598 124.95811523 -76.56075195 123.91623047 -76.33447266 122.84277344 C-67.54626733 82.55261482 -45.53731268 22.59450363 -8.91015625 -1.3671875 C-5.57747702 -2.47126528 -3.13934151 -1.27899099 0 0 Z " fill="#000101" transform="translate(81,79)"/>
<path d="M0 0 C-1.26562529 3.29548379 -2.67039341 6.39549831 -4.36328125 9.4921875 C-4.8310498 10.34981689 -5.29881836 11.20744629 -5.78076172 12.09106445 C-6.28623535 13.00976318 -6.79170898 13.92846191 -7.3125 14.875 C-8.10938232 16.32942505 -8.10938232 16.32942505 -8.92236328 17.81323242 C-13.75856895 26.61399381 -18.6969143 35.35584431 -23.65234375 44.08984375 C-27.10242122 50.17279514 -30.52267638 56.27220467 -33.9375 62.375 C-34.51290527 63.40214111 -35.08831055 64.42928223 -35.68115234 65.48754883 C-38.726403 70.92598129 -41.7617758 76.36968925 -44.78515625 81.8203125 C-45.40720947 82.93873535 -46.0292627 84.0571582 -46.67016602 85.20947266 C-47.85216317 87.33501738 -49.03124656 89.46218623 -50.20678711 91.59130859 C-51.77690727 94.41120224 -53.37655747 97.21051035 -55 100 C-55.41483643 100.72622559 -55.82967285 101.45245117 -56.25708008 102.20068359 C-61.21814214 110.26908005 -68.06390164 116.92492668 -74.6875 123.625 C-75.34761078 124.29329834 -76.00772156 124.96159668 -76.68783569 125.65014648 C-88.35888658 137.34276076 -99.81665344 145.25545563 -114.75927734 152.40966797 C-120.17457114 155.06713548 -125.38522181 158.07788889 -130.625 161.0625 C-132.68664377 162.220276 -134.74914162 163.37653249 -136.8125 164.53125 C-137.83085937 165.10230469 -138.84921875 165.67335938 -139.8984375 166.26171875 C-143.03552164 168.01990823 -146.17381873 169.77591344 -149.3125 171.53125 C-159.80203384 177.39833227 -170.28441349 183.27778654 -180.75 189.1875 C-181.7085791 189.72834229 -182.6671582 190.26918457 -183.65478516 190.82641602 C-184.5472998 191.33100342 -185.43981445 191.83559082 -186.359375 192.35546875 C-187.13764648 192.79528076 -187.91591797 193.23509277 -188.71777344 193.68823242 C-190.38642086 194.64732983 -192.03284396 195.64538555 -193.66503906 196.6652832 C-196 198 -196 198 -198 198 C-196.67108972 194.52450785 -195.15371762 191.27128126 -193.3828125 188 C-192.86477051 187.04182373 -192.34672852 186.08364746 -191.81298828 185.09643555 C-191.25595215 184.07461182 -190.69891602 183.05278809 -190.125 182 C-189.25270752 180.39475464 -189.25270752 180.39475464 -188.36279297 178.75708008 C-184.22107341 171.16505088 -179.97584932 163.63834984 -175.66040039 156.14404297 C-171.55763303 149.00943401 -167.55031062 141.82440878 -163.5625 134.625 C-158.70493232 125.86519666 -153.84366544 117.10770316 -148.9375 108.375 C-148.42582275 107.45799316 -147.91414551 106.54098633 -147.38696289 105.59619141 C-145.95115739 103.04758352 -144.48543846 100.51995395 -143 98 C-142.59692627 97.2972998 -142.19385254 96.59459961 -141.77856445 95.87060547 C-136.79960016 87.77239189 -129.96059591 81.09985372 -123.3125 74.375 C-122.65238922 73.70670166 -121.99227844 73.03840332 -121.31216431 72.34985352 C-109.64379281 60.65992359 -98.18870162 52.74720032 -83.24951172 45.59472656 C-77.78973805 42.91529444 -72.53410346 39.88205989 -67.25 36.875 C-65.18293585 35.71499719 -63.11523431 34.55612939 -61.046875 33.3984375 C-54.25699245 29.58592497 -47.47874963 25.75293486 -40.70263672 21.91601562 C-32.20471433 17.10714803 -23.68484814 12.33781144 -15.15820312 7.58007812 C-14.16498047 7.02513672 -13.17175781 6.47019531 -12.1484375 5.8984375 C-10.83625244 5.16633057 -10.83625244 5.16633057 -9.49755859 4.41943359 C-7.74445038 3.42309233 -6.01440641 2.38558778 -4.30322266 1.31884766 C-2 0 -2 0 0 0 Z " fill="#FB636D" transform="translate(355,157)"/>
<path d="M0 0 C1.49490967 0.29003906 1.49490967 0.29003906 3.02001953 0.5859375 C51.42148057 10.14963524 95.61559771 32.56737765 131 67 C132.00377686 67.96510498 132.00377686 67.96510498 133.02783203 68.94970703 C141.96491207 77.56407599 150.36706664 86.27314609 157.72607422 96.28173828 C159.02250666 98.03035682 160.35288718 99.74828803 161.69140625 101.46484375 C169.55567241 111.6795598 175.9411092 122.63725258 182 134 C182.66346436 135.24064209 182.66346436 135.24064209 183.34033203 136.50634766 C194.85704842 158.40949262 202.5280584 182.70059889 207 207 C207.16081055 207.80066895 207.32162109 208.60133789 207.48730469 209.42626953 C215.76360463 251.73778646 213.14087926 309.27357298 192.44921875 347.89453125 C191 350 191 350 189 351 C186.1875 351.4375 186.1875 351.4375 183 351 C178.98104716 347.49410497 178.98104716 347.49410497 178 345 C178.32686839 338.89845668 180.39130146 333.32409645 182.3125 327.5625 C202.66701217 264.69382328 196.32212855 198.4620438 166.43505859 139.73339844 C150.88006116 110.10533595 127.70658166 82.02471394 100.67089844 62.2265625 C99.01828746 61.01342434 97.38775631 59.77461088 95.7578125 58.53125 C67.96351326 37.66283803 34.90706275 23.95448804 1 17 C-0.03898438 16.77828125 -1.07796875 16.5565625 -2.1484375 16.328125 C-16.18017353 13.5470602 -30.29061509 12.61736553 -44.5625 12.6875 C-45.73079849 12.69023422 -45.73079849 12.69023422 -46.92269897 12.69302368 C-60.45633107 12.7459777 -73.65812073 13.60124768 -87 16 C-87.94020996 16.16628906 -88.88041992 16.33257813 -89.84912109 16.50390625 C-127.65627637 23.42336527 -162.50428515 39.47639988 -193.11572266 62.58032227 C-201.49172617 68.89108418 -201.49172617 68.89108418 -204.625 69.5625 C-208.0311278 68.75578552 -209.66027196 67.60712553 -212 65 C-212.625 61.5625 -212.625 61.5625 -212 58 C-183.58401933 26.76222334 -136.38411309 9.18530253 -96 1 C-94.6085376 0.70367676 -94.6085376 0.70367676 -93.18896484 0.40136719 C-63.71172132 -5.67200857 -29.50946246 -6.04087642 0 0 Z " fill="#000101" transform="translate(302,3)"/>
<path d="M0 0 C-0.5669458 0.30591064 -1.1338916 0.61182129 -1.71801758 0.92700195 C-4.4177578 2.3859319 -7.11510834 3.84923268 -9.8125 5.3125 C-10.70259766 5.79267578 -11.59269531 6.27285156 -12.50976562 6.76757812 C-15.06240445 8.15430579 -17.60124507 9.56390136 -20.13815308 10.97912598 C-22.20943743 12.11483717 -24.30104038 13.20819405 -26.39282227 14.30566406 C-38.80051482 20.96629379 -48.49035868 29.09066098 -58.3125 39.125 C-59.05047821 39.86756042 -59.78845642 40.61012085 -60.54879761 41.37518311 C-72.09639744 53.05053537 -80.88363121 64.33100765 -87.74755859 79.33642578 C-89.7257513 83.54345939 -92.05040511 87.53988076 -94.375 91.5625 C-95.09279435 92.83370598 -95.80915739 94.10572233 -96.5234375 95.37890625 C-97.01070312 96.24386719 -97.49796875 97.10882813 -98 98 C-103.56454499 92.43545501 -102.42368561 80.22507383 -102.4375 72.8125 C-102.41882782 62.24560454 -101.27814347 53.70408153 -97 44 C-96.72124023 43.36416992 -96.44248047 42.72833984 -96.15527344 42.07324219 C-91.68332131 32.15372933 -85.74082995 24.57279457 -78 17 C-77.30519531 16.27296875 -76.61039063 15.5459375 -75.89453125 14.796875 C-59.28198421 -1.52647877 -21.18258112 -14.12172075 0 0 Z " fill="#5EB4FB" transform="translate(280,182)"/>
<path d="M0 0 C5.56112002 5.56112002 4.22180957 17.12547067 4.25 24.5625 C4.06924559 46.79723627 -4.00113978 65.7235232 -19.95507812 81.4284668 C-34.61890877 95.31511441 -53.2060125 102.20548676 -73.1875 102.1875 C-74.57545776 102.1862915 -74.57545776 102.1862915 -75.99145508 102.18505859 C-93.97547082 102.02452918 -93.97547082 102.02452918 -98 98 C-96.78437378 97.33581055 -96.78437378 97.33581055 -95.54418945 96.65820312 C-92.46928852 94.97601154 -89.39611532 93.29073935 -86.32397461 91.60351562 C-85.00692111 90.88096655 -83.68923587 90.15956753 -82.37084961 89.43945312 C-78.50680456 87.32830757 -74.65846322 85.19203024 -70.82577515 83.02444458 C-69.13325038 82.07476694 -67.42711414 81.14945919 -65.7199707 80.22631836 C-55.62820175 74.4822784 -47.71496985 66.74354051 -39.5625 58.5625 C-38.83321289 57.83612335 -38.10392578 57.1097467 -37.35253906 56.36135864 C-25.7853589 44.75966904 -17.16097859 33.62635619 -10.26855469 18.6796875 C-8.27657695 14.47184538 -5.95170094 10.46676527 -3.625 6.4375 C-2.90725627 5.16626544 -2.1909005 3.89424519 -1.4765625 2.62109375 C-0.98929687 1.75613281 -0.50203125 0.89117187 0 0 Z " fill="#5EB4FC" transform="translate(330,232)"/>
<path d="M0 0 C3.41858306 3.33540585 3.93158142 7.40611923 4.6875 11.9375 C4.81705078 12.64068359 4.94660156 13.34386719 5.08007812 14.06835938 C5.73193296 17.74840756 6.15358923 21.26266204 6 25 C6.66 25 7.32 25 8 25 C8.2475 23.783125 8.495 22.56625 8.75 21.3125 C9.67373948 17.24287853 10.6917971 13.20751121 11.8125 9.1875 C12.10769531 8.10855469 12.40289062 7.02960938 12.70703125 5.91796875 C14.24925973 2.43747125 15.78734364 1.00124747 19 -1 C22.625 -1 22.625 -1 26 0 C28.39598886 2.64550293 29.57453304 5.15624201 30.60546875 8.546875 C30.86650391 9.39121094 31.12753906 10.23554688 31.39648438 11.10546875 C31.65751953 11.97816406 31.91855469 12.85085937 32.1875 13.75 C32.46013672 14.63816406 32.73277344 15.52632812 33.01367188 16.44140625 C33.6829962 18.62551721 34.34481906 20.81161301 35 23 C35.33 23 35.66 23 36 23 C36.14248169 22.12263184 36.14248169 22.12263184 36.2878418 21.22753906 C36.73286894 18.56424307 37.20978744 15.90761929 37.6875 13.25 C37.83638672 12.32960937 37.98527344 11.40921875 38.13867188 10.4609375 C39.40152795 3.62665754 39.40152795 3.62665754 42.48828125 0.39453125 C45.4219337 -1.23426179 46.71378759 -1.73939779 50 -1 C52.875 0.9375 52.875 0.9375 55 4 C55.05523682 5.90472412 55.05523682 5.90472412 54.75097656 8.04589844 C54.63967407 8.84402954 54.52837158 9.64216064 54.41369629 10.46447754 C53.22606153 17.74342756 51.80006797 24.9716338 50.35400391 32.203125 C49.95023612 34.23991642 49.55476682 36.27836992 49.16748047 38.31835938 C48.60417407 41.28393188 48.01589797 44.24357169 47.421875 47.203125 C47.25395447 48.11153137 47.08603394 49.01993774 46.9130249 49.95587158 C45.79664811 55.33910747 44.59406079 58.56448702 40 62 C36.4375 62.5625 36.4375 62.5625 33 62 C29.58430333 59.23332149 28.3022996 56.79915895 27.11328125 52.61328125 C26.81486328 51.59298828 26.51644531 50.57269531 26.20898438 49.52148438 C25.91314453 48.46251953 25.61730469 47.40355469 25.3125 46.3125 C24.70690629 44.20371353 24.09896271 42.09559998 23.48828125 39.98828125 C23.09443237 38.58896362 23.09443237 38.58896362 22.69262695 37.16137695 C22.19555084 35.0430213 22.19555084 35.0430213 21 34 C20.8141333 34.6705542 20.6282666 35.3411084 20.43676758 36.03198242 C19.57903473 39.08889473 18.69607916 42.13796282 17.8125 45.1875 C17.52052734 46.24259766 17.22855469 47.29769531 16.92773438 48.38476562 C15.22601756 54.18524123 13.98508601 58.38090606 9 62 C5.5 62.625 5.5 62.625 2 62 C-2.47699197 58.39857748 -3.75280905 55.60771197 -4.6953125 50.00390625 C-4.81429901 49.33391098 -4.93328552 48.66391571 -5.05587769 47.97361755 C-5.43102318 45.83931794 -5.77883997 43.70167216 -6.125 41.5625 C-6.48287023 39.46505025 -6.84638857 37.36863164 -7.21026611 35.2722168 C-7.44985211 33.88758115 -7.6868013 32.50248661 -7.92108154 31.11694336 C-8.90527711 25.34614162 -10.11063629 19.64380209 -11.39599609 13.93188477 C-12.20500205 10.00490316 -12.58988303 6.98171043 -12 3 C-8.38525112 -1.49105164 -5.37641793 -1.59301272 0 0 Z " fill="#030304" transform="translate(76,224)"/>
<path d="M0 0 C9.87571747 1.81390729 16.86208276 17.66194587 22.26855469 25.49804688 C23.20072072 26.85227925 24.13174218 28.20729938 25.0625 29.5625 C25.0718457 28.86165283 25.08119141 28.16080566 25.09082031 27.4387207 C25.14464544 24.25010975 25.22826936 21.06294667 25.3125 17.875 C25.32667969 16.77220703 25.34085937 15.66941406 25.35546875 14.53320312 C25.60235583 6.36124083 25.60235583 6.36124083 27.92578125 2.328125 C30.0625 0.5625 30.0625 0.5625 33 0 C37.02789859 0.73981811 38.35774443 1.43052974 41.0625 4.5625 C41.82789035 8.57467489 41.73845164 12.55147277 41.69140625 16.625 C41.69381821 17.80843994 41.69623016 18.99187988 41.69871521 20.21118164 C41.6977359 22.71276196 41.68432273 25.21436372 41.65942383 27.71582031 C41.62512731 31.54827379 41.63875997 35.37842117 41.65820312 39.2109375 C41.65130467 41.64063483 41.64163231 44.0703262 41.62890625 46.5 C41.63386612 47.64799072 41.63882599 48.79598145 41.64393616 49.97875977 C41.62018166 51.58062134 41.62018166 51.58062134 41.59594727 53.21484375 C41.58974869 54.15320068 41.58355011 55.09155762 41.5771637 56.05834961 C40.90432682 59.33210828 39.67033223 60.52916172 37.0625 62.5625 C33.625 63.125 33.625 63.125 30.0625 62.5625 C26.49821663 59.40632725 23.76257384 55.95529038 21.07421875 52.04296875 C20.36845703 51.02138672 19.66269531 49.99980469 18.93554688 48.94726562 C18.21431641 47.89216797 17.49308594 46.83707031 16.75 45.75 C16.00943359 44.67556641 15.26886719 43.60113281 14.50585938 42.49414062 C12.68670864 39.85343794 10.87244508 37.20951686 9.0625 34.5625 C9.05633667 35.61377075 9.05633667 35.61377075 9.05004883 36.6862793 C9.01706628 39.87503205 8.94641668 43.06188605 8.875 46.25 C8.86919922 47.35279297 8.86339844 48.45558594 8.85742188 49.59179688 C8.60867479 58.74016173 8.60867479 58.74016173 5.73828125 61.828125 C3.0625 63.5625 3.0625 63.5625 -0.5625 63.625 C-4.31973645 62.4421663 -5.01916429 61.87254501 -6.9375 58.5625 C-7.32518005 56.05834961 -7.32518005 56.05834961 -7.34155273 53.21484375 C-7.35423691 52.14693604 -7.36692108 51.07902832 -7.37998962 49.97875977 C-7.37705399 48.83076904 -7.37411835 47.68277832 -7.37109375 46.5 C-7.3763356 45.31656006 -7.38157745 44.13312012 -7.38697815 42.91381836 C-7.39340023 40.41228012 -7.392059 37.91071168 -7.38354492 35.40917969 C-7.37503205 31.57692871 -7.40380135 27.7461663 -7.43554688 23.9140625 C-7.43715884 21.48437545 -7.43658144 19.05468575 -7.43359375 16.625 C-7.44482773 15.47700928 -7.45606171 14.32901855 -7.46763611 13.14624023 C-7.45825516 12.07833252 -7.44887421 11.0104248 -7.43920898 9.91015625 C-7.43904282 8.97179932 -7.43887665 8.03344238 -7.43870544 7.06665039 C-6.57326543 2.74269107 -4.23838581 0.81160579 0 0 Z " fill="#020203" transform="translate(242.9375,65.4375)"/>
<path d="M0 0 C4.48202763 2.33388466 6.68449003 3.65161016 8.29296875 8.56640625 C8.16796875 12.12890625 8.16796875 12.12890625 6.10546875 15.06640625 C3.16796875 17.12890625 3.16796875 17.12890625 0.23046875 17.69140625 C-2.83203125 17.12890625 -2.83203125 17.12890625 -5.70703125 15.12890625 C-9.80871979 12.50382558 -12.05225906 12.79926679 -16.83203125 13.12890625 C-17.49203125 14.44890625 -18.15203125 15.76890625 -18.83203125 17.12890625 C-18.28675781 17.2990625 -17.74148438 17.46921875 -17.1796875 17.64453125 C2.750501 24.04944653 2.750501 24.04944653 8.3671875 33.05078125 C10.37534091 38.26218423 9.87706398 44.28196781 7.73046875 49.37890625 C4.64217996 54.85561983 -0.98860977 58.18109909 -6.83203125 60.12890625 C-17.32551441 61.32169067 -25.38463289 59.1937697 -33.7265625 52.640625 C-36.38159524 49.92707914 -36.83038683 48.22592676 -36.89453125 44.44140625 C-35.83203125 41.12890625 -35.83203125 41.12890625 -34.20703125 39.12890625 C-30.69988167 37.65221169 -28.47522673 38.1701706 -24.83203125 39.12890625 C-24.06890625 39.78890625 -23.30578125 40.44890625 -22.51953125 41.12890625 C-18.66710787 43.99582597 -14.58659931 44.37066395 -9.83203125 44.12890625 C-8.84203125 43.46890625 -7.85203125 42.80890625 -6.83203125 42.12890625 C-7.02227839 40.17385972 -7.02227839 40.17385972 -7.83203125 38.12890625 C-9.6148629 36.9570603 -9.6148629 36.9570603 -11.875 36.234375 C-12.70193359 35.91791016 -13.52886719 35.60144531 -14.38085938 35.27539062 C-16.1189642 34.64370338 -17.85852131 34.01599573 -19.59960938 33.39257812 C-26.20619491 30.85315584 -30.61676177 27.55944521 -33.83203125 21.12890625 C-34.35041891 15.92803333 -34.49798524 11.51204147 -32.20703125 6.75390625 C-23.00457983 -3.41722427 -12.67038374 -5.78124028 0 0 Z " fill="#040405" transform="translate(273.83203125,385.87109375)"/>
<path d="M0 0 C1.08925781 -0.00644531 2.17851562 -0.01289063 3.30078125 -0.01953125 C4.99267578 0.00947266 4.99267578 0.00947266 6.71875 0.0390625 C7.84667969 0.01972656 8.97460938 0.00039062 10.13671875 -0.01953125 C19.31996684 0.0348075 19.31996684 0.0348075 22.46484375 3.01171875 C24.61672553 6.26590078 24.95137602 7.8381266 24.21875 11.6640625 C22.69921875 13.83203125 22.69921875 13.83203125 20.21875 15.6640625 C17.32425051 15.9546749 14.83925065 16.04592295 11.96875 15.9140625 C10.85113281 15.88699219 10.85113281 15.88699219 9.7109375 15.859375 C7.87965299 15.81241899 6.04903351 15.74067902 4.21875 15.6640625 C4.21875 18.6340625 4.21875 21.6040625 4.21875 24.6640625 C5.55679687 24.62925781 5.55679687 24.62925781 6.921875 24.59375 C8.09234375 24.57570312 9.2628125 24.55765625 10.46875 24.5390625 C11.62890625 24.51585937 12.7890625 24.49265625 13.984375 24.46875 C17.09603105 24.65665194 18.68859317 24.91152268 21.21875 26.6640625 C23.21875 29.6640625 23.21875 29.6640625 23.09375 33.1640625 C22.21875 36.6640625 22.21875 36.6640625 20.6171875 38.37109375 C17.30171855 40.1584231 14.70882484 39.95545347 10.96875 39.8515625 C9.70546875 39.82449219 8.4421875 39.79742187 7.140625 39.76953125 C6.17640625 39.73472656 5.2121875 39.69992187 4.21875 39.6640625 C4.21875 42.6340625 4.21875 45.6040625 4.21875 48.6640625 C5.24355469 48.61765625 6.26835937 48.57125 7.32421875 48.5234375 C8.68486656 48.48590239 10.04554605 48.44950409 11.40625 48.4140625 C12.07978516 48.38054687 12.75332031 48.34703125 13.44726562 48.3125 C17.0755944 48.24170334 19.0604839 48.56574886 22.16796875 50.49609375 C24.21875 52.6640625 24.21875 52.6640625 24.84375 55.6015625 C24.20585432 58.72725133 23.4105071 60.41643093 21.09130859 62.61450195 C16.78772323 65.02664191 11.50941676 64.37118822 6.71875 64.2890625 C5.02685547 64.31806641 5.02685547 64.31806641 3.30078125 64.34765625 C2.21152344 64.34121094 1.12226563 64.33476562 0 64.328125 C-0.98935547 64.32248535 -1.97871094 64.3168457 -2.99804688 64.31103516 C-7.10158028 63.35714362 -8.39865648 62.16404703 -10.78125 58.6640625 C-11.51912434 54.69480913 -11.48178292 50.78574405 -11.4453125 46.7578125 C-11.45009613 45.60035522 -11.45487976 44.44289795 -11.45980835 43.25036621 C-11.463207 40.80605712 -11.45400725 38.36170255 -11.43310547 35.91748047 C-11.40634277 32.17702842 -11.43285805 28.43957751 -11.46484375 24.69921875 C-11.46153965 22.32291005 -11.45513342 19.94660321 -11.4453125 17.5703125 C-11.45543365 16.4524939 -11.46555481 15.33467529 -11.47598267 14.1829834 C-11.36028193 6.51464939 -11.36028193 6.51464939 -8.60107422 2.46142578 C-5.42913193 0.43962153 -3.73425026 0.02128644 0 0 Z " fill="#030404" transform="translate(423.78125,222.3359375)"/>
<path d="M0 0 C5.25603924 4.37627301 8.76132566 8.57337795 9.8203125 15.515625 C10.00888947 22.70512189 8.40877723 27.9598623 3.8203125 33.515625 C-0.91769579 38.25363329 -5.89495851 41.34746452 -12.66796875 41.61328125 C-20.23278902 41.14263234 -25.2838892 38.78979082 -30.4296875 33.265625 C-34.78889937 27.74941051 -36.50010303 22.95541645 -36.1171875 15.890625 C-35.09689857 8.17468997 -31.06511916 3.84382962 -25.24609375 -1 C-17.50544513 -6.56039031 -7.48838849 -5.27522104 0 0 Z " fill="#040202" transform="translate(269.1796875,237.484375)"/>
<path d="M0 0 C1.09651823 3.41139003 0.94215473 6.20655581 0.5625 9.75 C0.46066406 10.73484375 0.35882813 11.7196875 0.25390625 12.734375 C0.17011719 13.48203125 0.08632813 14.2296875 0 15 C-0.84820312 14.68289062 -1.69640625 14.36578125 -2.5703125 14.0390625 C-6.09477225 12.97128768 -9.20670957 12.59958921 -12.875 12.375 C-14.02742188 12.30023438 -15.17984375 12.22546875 -16.3671875 12.1484375 C-17.67042969 12.07496094 -17.67042969 12.07496094 -19 12 C-19 9.03 -19 6.06 -19 3 C-17.31970703 2.92652344 -17.31970703 2.92652344 -15.60546875 2.8515625 C-14.13278797 2.77652144 -12.66013293 2.70097418 -11.1875 2.625 C-10.44951172 2.5940625 -9.71152344 2.563125 -8.95117188 2.53125 C-5.18106885 2.32653852 -3.20349259 2.13566173 0 0 Z " fill="#CFE2F4" transform="translate(447,235)"/>
<path d="M0 0 C3.72206393 1.34627844 5.01947413 2.61005343 6.9375 6.0625 C7.01854732 10.03381876 6.4063579 11.54005834 3.75 14.5 C0.9375 16.0625 0.9375 16.0625 -2.125 16.125 C-5.84706393 14.77872156 -7.14447413 13.51494657 -9.0625 10.0625 C-9.14354732 6.09118124 -8.5313579 4.58494166 -5.875 1.625 C-3.0625 0.0625 -3.0625 0.0625 0 0 Z " fill="#CCDFF0" transform="translate(257.0625,247.9375)"/>
<path d="M0 0 C-0.66 3.3 -1.32 6.6 -2 10 C-6.95 10 -11.9 10 -17 10 C-17 7.03 -17 4.06 -17 1 C-14.72926348 0.83201949 -12.45840707 0.66565887 -10.1875 0.5 C-8.29064453 0.36078125 -8.29064453 0.36078125 -6.35546875 0.21875 C-4.24021483 0.08085219 -2.11974408 0 0 0 Z " fill="#D1E5F6" transform="translate(445,261)"/>
</svg>
