<?xml version="1.0" encoding="UTF-8"?>
<svg version="1.1" xmlns="http://www.w3.org/2000/svg" width="512" height="512">
<path d="M0 0 C1.38609954 -0.00644659 2.7721978 -0.01317625 4.15829468 -0.02017212 C7.05461777 -0.03208821 9.95082213 -0.03585908 12.84716797 -0.03466797 C16.51479589 -0.03446565 20.18164139 -0.06170192 23.84908485 -0.09621239 C26.7114494 -0.11872264 29.57363322 -0.12249817 32.43607712 -0.12144852 C34.43145275 -0.12488205 36.42677199 -0.14639409 38.42202759 -0.16854858 C57.43621377 -0.07503494 74.50001438 6.53498325 88.6484375 19.3359375 C89.40640625 20.00109375 90.164375 20.66625 90.9453125 21.3515625 C104.43450793 33.91046859 113.21018138 51.75841185 114.01953125 70.234375 C114.05871233 72.39298708 114.08019134 74.5519775 114.0859375 76.7109375 C114.09608887 78.41709229 114.09608887 78.41709229 114.10644531 80.15771484 C114.01266835 88.29686939 112.88899992 95.54996372 110.07592773 103.19677734 C108.66362262 107.31907979 108.66362262 107.31907979 109.36523438 111.52636719 C110.373532 113.52928751 111.49340349 115.41570687 112.6484375 117.3359375 C115.38929175 125.55850025 114.63511687 136.45591685 110.90625 144.2265625 C106.45892586 151.68480796 100.7450266 156.01930609 92.8984375 159.5859375 C89.6484375 160.3359375 89.6484375 160.3359375 86.85546875 160.21484375 C83.45172355 160.14296342 80.88507323 160.24537959 77.6484375 161.3359375 C75.34679644 164.31853745 73.96285172 167.34472499 72.41015625 170.7734375 C68.54470141 178.59005572 62.41856044 184.39376093 55.0859375 188.9609375 C51.59427594 191.17650715 51.59427594 191.17650715 49.80078125 194.76171875 C49.55241775 197.01098255 49.55243109 199.08198893 49.6484375 201.3359375 C50.63299927 201.46983887 50.63299927 201.46983887 51.63745117 201.60644531 C62.39348754 203.16195796 73.03396099 205.28393268 83.68530273 207.4296875 C85.86252389 207.86587819 88.04091818 208.29625506 90.22045898 208.72070312 C120.90867431 214.69871657 120.90867431 214.69871657 132.36787415 222.4430542 C133.17150548 222.98446423 133.97513681 223.52587425 134.80312061 224.08369064 C135.41207519 224.49693211 136.02102976 224.91017357 136.6484375 225.3359375 C136.65063734 223.85141098 136.65063734 223.85141098 136.65288162 222.33689404 C136.68951123 198.2320096 136.74900627 174.12726374 136.83234024 150.02249432 C136.87211347 138.36549848 136.90451472 126.70857 136.91943359 115.05151367 C136.93245895 104.88869993 136.95944636 94.72603447 137.00305057 84.56330425 C137.02564531 79.18448485 137.04134936 73.80584822 137.04032135 68.42697716 C137.03957358 63.35848272 137.05757176 58.29039198 137.08960533 53.22200203 C137.09808537 51.36736265 137.09986721 49.51267788 137.09424019 47.65802765 C137.05683955 33.42959528 138.36953563 22.10334164 148.6484375 11.3359375 C159.21187321 1.25175029 170.51225233 -0.26358012 184.59375 -0.18164062 C186.17357017 -0.18707171 187.75338526 -0.19419986 189.33319092 -0.20288086 C193.59360097 -0.22100013 197.85362033 -0.21409426 202.11403656 -0.20136452 C206.59052009 -0.19117735 211.06697206 -0.20064597 215.54345703 -0.20690918 C223.05832878 -0.21416904 230.57304286 -0.20464167 238.08789062 -0.18554688 C246.75343781 -0.16378131 255.41860843 -0.17083386 264.0841465 -0.1928525 C271.54862992 -0.21105403 279.01300054 -0.21354167 286.47749901 -0.20309782 C290.9250238 -0.19688893 295.37237208 -0.19595501 299.81988525 -0.20924377 C304.00291663 -0.22087118 308.18546652 -0.21265212 312.36844635 -0.18966675 C313.89575657 -0.18441618 315.42310792 -0.18583017 316.95040131 -0.19471741 C330.27200696 -0.26503786 340.77717282 1.91251848 350.6484375 11.3359375 C362.05766754 23.28738838 362.23548211 36.07225191 362.16601562 51.6875 C362.17144284 53.74021907 362.17856885 55.79293423 362.18725586 57.84564209 C362.20542075 63.39523707 362.19844989 68.94453309 362.18573952 74.494133 C362.17557639 80.31592077 362.18501438 86.13768382 362.19128418 91.95947266 C362.19855094 101.73409598 362.18899834 111.50859821 362.16992188 121.28320312 C362.1481551 132.56623604 362.15520715 143.84897978 362.1772275 155.13200569 C362.19540914 164.83850127 362.19792629 174.54491005 362.18747282 184.25141716 C362.18125311 190.04031994 362.18036034 195.82908702 362.19361877 201.61798096 C362.20521686 207.06168328 362.1970792 212.5050146 362.17404175 217.94867706 C362.16877579 219.94040564 362.170232 221.9321657 362.17909241 223.92388153 C362.23820232 238.56680782 361.24971294 250.23083907 350.6484375 261.3359375 C344.45391088 267.249427 339.03145693 269.2875668 330.6484375 272.3359375 C330.3184375 288.1759375 329.9884375 304.0159375 329.6484375 320.3359375 C313.8084375 320.3359375 297.9684375 320.3359375 281.6484375 320.3359375 C281.6484375 304.4959375 281.6484375 288.6559375 281.6484375 272.3359375 C276.3684375 272.3359375 271.0884375 272.3359375 265.6484375 272.3359375 C265.6484375 282.8959375 265.6484375 293.4559375 265.6484375 304.3359375 C260.3684375 304.3359375 255.0884375 304.3359375 249.6484375 304.3359375 C249.6484375 320.1759375 249.6484375 336.0159375 249.6484375 352.3359375 C244.3684375 352.3359375 239.0884375 352.3359375 233.6484375 352.3359375 C233.65731995 353.90923828 233.66620239 355.48253906 233.675354 357.10351562 C233.7564626 371.93487301 233.81665448 386.76614877 233.85568619 401.59767151 C233.87628703 409.22259445 233.90435993 416.84735151 233.95019531 424.47216797 C233.99013933 431.12012789 234.01588832 437.76796764 234.02479148 444.41604424 C234.02999353 447.93425249 234.04216768 451.45211705 234.07135773 454.97021484 C234.10372515 458.90338447 234.10439205 462.83622181 234.10253906 466.76953125 C234.11692017 467.92831284 234.13130127 469.08709442 234.14611816 470.2809906 C234.10617779 478.12279988 232.99585033 483.51602704 227.68359375 489.578125 C227.03261719 490.11695313 226.38164062 490.65578125 225.7109375 491.2109375 C225.06253906 491.76523437 224.41414063 492.31953125 223.74609375 492.890625 C217.24486193 497.37005847 210.27702833 497.01057478 202.6484375 496.3359375 C195.98884417 494.65508167 191.46296303 489.87215428 187.6484375 484.3359375 C185.64303941 480.23123849 185.37314996 476.78667828 185.3046875 472.2421875 C185.2900647 471.57304321 185.27544189 470.90389893 185.26037598 470.21447754 C185.19852606 467.37087391 185.15862644 464.52706119 185.11669922 461.68310547 C185.08280562 459.59841041 185.03773935 457.51415524 184.9921875 455.4296875 C184.97349609 454.18896484 184.95480469 452.94824219 184.93554688 451.66992188 C184.65767073 448.44315602 184.13840647 446.19720534 182.6484375 443.3359375 C179.84973723 441.93658737 177.74344958 442.08328345 174.6484375 442.3359375 C172.08894204 444.18936525 171.66924952 445.27350143 170.6484375 448.3359375 C170.54352969 450.59858768 170.493243 452.8639189 170.47265625 455.12890625 C170.44944173 456.49545784 170.42532375 457.86199432 170.40039062 459.22851562 C170.36543703 461.36997358 170.33601669 463.51088078 170.32250977 465.65258789 C170.25208013 475.00456049 170.11112845 482.24332397 163.68359375 489.578125 C163.03261719 490.11695313 162.38164062 490.65578125 161.7109375 491.2109375 C161.06253906 491.76523437 160.41414063 492.31953125 159.74609375 492.890625 C155.91157748 495.53265669 152.43636653 496.58631931 147.80089092 496.58203316 C146.84693548 496.58601525 145.89298004 496.58999735 144.91011685 496.59410012 C143.87023407 496.58827443 142.83035129 496.58244875 141.75895691 496.57644653 C140.09258469 496.57900981 140.09258469 496.57900981 138.39254838 496.58162487 C134.66291951 496.58492415 130.93346978 496.57390865 127.20385742 496.56298828 C124.533199 496.56242426 121.86255161 496.56265244 119.19189453 496.56387329 C113.4384748 496.56492176 107.68510044 496.55864909 101.93169212 496.54739761 C93.61324617 496.53114049 85.29482215 496.52593439 76.97636203 496.52342163 C63.48007852 496.51904486 49.9838192 496.50573625 36.48754883 496.48681641 C23.377524 496.46845714 10.26750577 496.4543238 -2.8425293 496.44580078 C-4.0671343 496.44499679 -4.0671343 496.44499679 -5.31647879 496.44417655 C-11.70133118 496.44001769 -18.08618372 496.43610385 -24.47103631 496.43226743 C-55.76456724 496.41340158 -87.05803763 496.37316461 -118.3515625 496.3359375 C-118.3515625 451.4559375 -118.3515625 406.5759375 -118.3515625 360.3359375 C-123.6315625 360.3359375 -128.9115625 360.3359375 -134.3515625 360.3359375 C-134.4424011 349.77315529 -134.51558622 339.21063803 -134.55881119 328.64755154 C-134.57957058 323.74120354 -134.60767182 318.83513964 -134.65332031 313.92895508 C-134.69719808 309.18267642 -134.72078687 304.43666875 -134.73107147 299.69020271 C-134.7383884 297.89114181 -134.75267346 296.09209354 -134.77448273 294.29314995 C-134.94128034 279.94721986 -133.44638318 266.93553506 -126.6015625 254.0234375 C-126.25939697 253.36029541 -125.91723145 252.69715332 -125.56469727 252.01391602 C-122.48039532 246.22371517 -118.78676491 241.17597583 -114.3515625 236.3359375 C-113.78824219 235.70429688 -113.22492188 235.07265625 -112.64453125 234.421875 C-98.41050699 219.28780705 -78.95039256 213.40400141 -59.15625 209.5390625 C-57.96097687 209.3005658 -56.76570374 209.06206909 -55.53421021 208.81634521 C-53.03580958 208.31919602 -50.53676587 207.82526835 -48.03710938 207.33447266 C-44.20028954 206.5807765 -40.36566879 205.81658985 -36.53125 205.05078125 C-34.09387044 204.56710103 -31.65637453 204.08400665 -29.21875 203.6015625 C-28.0719577 203.37349915 -26.92516541 203.14543579 -25.74362183 202.91046143 C-24.15518967 202.59948517 -24.15518967 202.59948517 -22.53466797 202.28222656 C-21.60347137 202.09887756 -20.67227478 201.91552856 -19.71286011 201.72662354 C-17.3515625 201.3359375 -17.3515625 201.3359375 -14.3515625 201.3359375 C-14.02649612 198.07015435 -14.21366296 195.43005581 -15.3515625 192.3359375 C-17.85416142 190.02892358 -20.52516431 188.28420211 -23.3671875 186.4140625 C-30.62128871 181.36277737 -35.04453928 175.24511032 -38.6640625 167.2734375 C-40.2118586 163.93551844 -40.2118586 163.93551844 -42.3515625 161.3359375 C-45.5125645 160.30739267 -48.04607099 160.26938657 -51.359375 160.34375 C-58.86048836 160.32416485 -66.0577462 155.37546568 -71.3515625 150.3359375 C-76.56853399 143.7154153 -78.7436219 136.95580003 -78.7265625 128.5234375 C-78.72740845 127.46829956 -78.72740845 127.46829956 -78.72827148 126.3918457 C-78.60444514 120.52058228 -77.22272855 116.35182999 -74.3515625 111.3359375 C-73.18188159 107.82689477 -73.87889964 106.38499671 -75.04321289 102.9934082 C-81.76220894 82.99477284 -80.19298046 60.94203925 -71.1015625 42.0234375 C-67.82330953 35.82963188 -64.04618331 30.52472892 -59.3515625 25.3359375 C-58.68640625 24.57796875 -58.02125 23.82 -57.3359375 23.0390625 C-42.06233749 6.63408471 -22.00778725 0.03749313 0 0 Z M168.6484375 272.3359375 C168.9784375 301.3759375 169.3084375 330.4159375 169.6484375 360.3359375 C164.3684375 360.3359375 159.0884375 360.3359375 153.6484375 360.3359375 C153.6390918 361.78774414 153.62974609 363.23955078 153.62011719 364.73535156 C153.57996168 370.17022325 153.51413301 375.604544 153.44091797 381.0390625 C153.41285584 383.38208895 153.39156865 385.72520747 153.37744141 388.06835938 C153.35580677 391.45490156 153.30905156 394.84035371 153.2578125 398.2265625 C153.25596954 399.77419281 153.25596954 399.77419281 153.25408936 401.35308838 C152.99636251 414.4250256 148.51309158 425.07573643 139.546875 434.55859375 C129.55762165 444.00073252 119.18374669 446.98240658 105.6484375 448.3359375 C105.6484375 458.8959375 105.6484375 469.4559375 105.6484375 480.3359375 C111.23565604 480.40494706 116.82138567 480.46463872 122.40869141 480.50073242 C124.30783103 480.51578441 126.20693609 480.53623066 128.10595703 480.56225586 C130.84155831 480.59879742 133.5766985 480.61569988 136.3125 480.62890625 C137.15648346 480.64439011 138.00046692 480.65987396 138.87002563 480.67582703 C143.83204045 480.67723181 147.45627407 480.29541964 151.6484375 477.3359375 C153.97410847 473.48114413 153.90026158 469.77636356 153.921875 465.34765625 C153.94217078 463.98762208 153.96302169 462.6275961 153.984375 461.26757812 C154.00689376 459.14812267 154.0234221 457.02899315 154.02929688 454.90942383 C154.07196486 445.75607533 154.15062841 438.54816369 160.39453125 431.3125 C160.95269531 430.86648438 161.51085937 430.42046875 162.0859375 429.9609375 C162.91931641 429.26871094 162.91931641 429.26871094 163.76953125 428.5625 C170.25081256 424.33147644 177.15605419 424.66561102 184.6484375 425.3359375 C190.85438121 426.96805183 195.18461867 431.02989656 198.6484375 436.3359375 C200.64416358 440.44351134 200.91165258 443.85043597 200.95703125 448.39453125 C200.98218761 449.7636762 201.00758569 451.13281673 201.03320312 452.50195312 C201.06191393 454.63906742 201.08596094 456.77610516 201.10473633 458.91333008 C201.12650861 460.99078833 201.16594463 463.0673779 201.20703125 465.14453125 C201.22721313 466.99776001 201.22721313 466.99776001 201.24780273 468.88842773 C201.68620944 472.6609695 202.67546662 475.10856361 204.6484375 478.3359375 C207.48927391 479.75635571 209.50321028 479.65046022 212.6484375 479.3359375 C215.49624369 477.10387319 216.49841416 475.78600751 217.6484375 472.3359375 C217.73822305 470.69909879 217.77040497 469.05880836 217.76869202 467.41950989 C217.77006668 466.40568741 217.77144135 465.39186493 217.77285767 464.34732056 C217.76926239 463.23601776 217.76566711 462.12471497 217.76196289 460.97973633 C217.76210892 459.80886978 217.76225494 458.63800323 217.7624054 457.43165588 C217.76182775 454.22117474 217.75680948 451.01073707 217.74983144 447.8002646 C217.74358381 444.44502593 217.74299298 441.08978643 217.74180603 437.73454285 C217.73869688 431.38100997 217.73048908 425.02749428 217.72045654 418.67396897 C217.70928251 411.44066577 217.7037817 404.20736175 217.69876111 396.97405207 C217.68830614 382.09467072 217.67051349 367.21530647 217.6484375 352.3359375 C212.3684375 352.3359375 207.0884375 352.3359375 201.6484375 352.3359375 C201.6484375 336.4959375 201.6484375 320.6559375 201.6484375 304.3359375 C196.3684375 304.3359375 191.0884375 304.3359375 185.6484375 304.3359375 C185.6484375 293.7759375 185.6484375 283.2159375 185.6484375 272.3359375 C180.0384375 272.3359375 174.4284375 272.3359375 168.6484375 272.3359375 Z " fill="#000000" transform="translate(142.3515625,7.6640625)"/>
<path d="M0 0 C1.93446991 -0.01062721 1.93446991 -0.01062721 3.90802002 -0.02146912 C5.33013951 -0.01917544 6.75225867 -0.01666576 8.17437744 -0.01396179 C9.67773695 -0.01831088 11.18109424 -0.02349469 12.68444824 -0.02944946 C16.76316378 -0.04283269 20.84178661 -0.04341866 24.92051983 -0.04088616 C28.3298003 -0.03981553 31.73906209 -0.04470242 35.14833856 -0.04949158 C43.19609493 -0.06058542 51.24380463 -0.06102552 59.29156494 -0.05497742 C67.58092384 -0.04894322 75.87011276 -0.06123479 84.15944266 -0.08254749 C91.28575079 -0.10019312 98.41200497 -0.10616 105.53833413 -0.10290974 C109.79024898 -0.10110073 114.0420427 -0.1036944 118.29393768 -0.11762428 C122.29622409 -0.13024552 126.29824689 -0.12821817 130.30052948 -0.11521339 C131.76418143 -0.112857 133.22785217 -0.11554849 134.69148254 -0.12383652 C143.33930233 -0.16924955 151.51055089 -0.20816715 158.88238525 4.80366516 C159.64615479 5.61770813 159.64615479 5.61770813 160.425354 6.44819641 C161.20845947 7.24290344 161.20845947 7.24290344 162.00738525 8.05366516 C166.42303646 14.12384261 168.20858172 19.3885952 168.1275177 26.86210632 C168.13446323 27.69084719 168.14140876 28.51958806 168.14856476 29.37344229 C168.16675809 32.13089889 168.15659202 34.88748765 168.14630127 37.64497375 C168.15336368 39.62990967 168.16211004 41.6148402 168.17240906 43.59976196 C168.19487798 48.97797585 168.19196887 54.3558951 168.18308759 59.73413801 C168.17797069 64.22957588 168.18527607 68.72495872 168.19255966 73.22039092 C168.20955116 83.82892726 168.20600079 94.43731974 168.18927002 105.04585266 C168.17235253 115.97727679 168.18818001 126.90830148 168.2204929 137.83968198 C168.24721511 147.23697939 168.25445757 156.63415267 168.24597782 166.03148425 C168.24105594 171.63879487 168.24322427 177.24586526 168.26376534 182.8531456 C168.28216339 188.12778944 168.27611304 193.40186029 168.25156593 198.67647362 C168.246571 200.60734588 168.25001341 202.5382621 168.26271439 204.46909904 C168.3867402 224.95122089 168.3867402 224.95122089 160.88680363 233.14685631 C152.69730048 241.15511857 142.4997839 240.74090845 131.7769165 240.80757141 C130.17295955 240.82803114 128.56901638 240.84959594 126.96508789 240.87217712 C121.72278729 240.94009084 116.48046501 240.97645162 111.237854 241.01069641 C109.42773329 241.02416242 107.61761366 241.03777398 105.80749512 241.05152893 C98.27886421 241.10681881 90.75025949 241.1545173 83.22146606 241.1806488 C72.45282257 241.21806046 61.68670564 241.30016153 50.91896248 241.44577789 C43.33316386 241.54484009 35.74803511 241.59394787 28.16160393 241.60585785 C23.63541404 241.61420328 19.11179458 241.64401216 14.58630371 241.72688293 C10.33004517 241.80363394 6.07798965 241.81828116 1.82120514 241.78597641 C0.26345408 241.78476661 -1.29450172 241.80565615 -2.85160065 241.85074234 C-8.92501975 242.01681264 -14.2321289 242.06366031 -19.10560989 237.98633289 C-25.99530052 228.51942706 -25.49691144 217.99373304 -25.35882568 206.72627258 C-25.36312485 204.67823824 -25.37089127 202.63020871 -25.38183594 200.5821991 C-25.40111186 195.05526074 -25.37076274 189.52962797 -25.33002377 184.00284743 C-25.2947198 178.20505019 -25.30193494 172.40728836 -25.3034668 166.60940552 C-25.29972931 156.88105086 -25.26511067 147.15319756 -25.21038818 137.42500305 C-25.14740696 126.18728246 -25.12639933 114.95010948 -25.1293304 103.71222514 C-25.13203409 91.72598382 -25.1042697 79.73995269 -25.06754398 67.75377488 C-25.0590306 64.30755387 -25.05618096 60.8613669 -25.05458832 57.41513634 C-25.05056359 51.99843646 -25.02608866 46.58219427 -24.98592377 41.1656456 C-24.97426555 39.18074027 -24.96931384 37.19578225 -24.97163391 35.21084404 C-24.97360553 32.49664751 -24.95089416 29.78372112 -24.92199707 27.06970215 C-24.92819148 26.28866424 -24.93438589 25.50762634 -24.940768 24.70292062 C-24.82305242 17.98613006 -22.66555808 12.82849536 -18.20355225 7.79975891 C-17.08786865 6.85229797 -17.08786865 6.85229797 -15.949646 5.88569641 C-15.20843506 5.23858704 -14.46722412 4.59147766 -13.70355225 3.92475891 C-9.2332349 0.71336736 -5.45658456 0.01000728 0 0 Z " fill="#E5E8EC" transform="translate(320.38714599609375,23.739303588867188)"/>
<path d="M0 0 C-0.1043335 0.55083252 -0.20866699 1.10166504 -0.31616211 1.66918945 C-3.34556848 17.7239206 -6.23212685 33.80365031 -9.08132935 49.89120483 C-9.48245449 52.15520017 -9.88435917 54.41905754 -10.28707886 56.68276978 C-12.37586641 68.43159166 -14.45816644 80.16435362 -16 92 C-15.49238129 91.6566713 -14.98476257 91.31334259 -14.46176147 90.95960999 C-9.10828727 87.33924078 -3.7532903 83.72113216 1.60253906 80.10424805 C3.59282781 78.75975816 5.58274637 77.41472009 7.57226562 76.0690918 C13.20338233 72.26072338 18.84446999 68.46792315 24.49523926 64.68878174 C26.7936693 63.1391141 29.0724293 61.56481582 31.34667969 59.97998047 C32.59281317 59.13076539 33.83920864 58.28193452 35.0859375 57.43359375 C36.12540527 56.71099365 37.16487305 55.98839355 38.23583984 55.24389648 C41 54 41 54 43.39476013 54.74862671 C45.89236114 55.94829789 48.1383 57.25065036 50.44799805 58.77807617 C51.29625656 59.33593307 52.14451508 59.89378998 53.01847839 60.46855164 C54.37638237 61.37163811 54.37638237 61.37163811 55.76171875 62.29296875 C56.70755325 62.91722244 57.65338776 63.54147614 58.62788391 64.18464661 C60.62888583 65.50648863 62.62846185 66.83049135 64.62670898 68.15649414 C67.65635271 70.16683203 70.69004306 72.17093048 73.72460938 74.17382812 C75.6747214 75.46317537 77.62459862 76.75287783 79.57421875 78.04296875 C80.46936691 78.63490524 81.36451508 79.22684174 82.28678894 79.8367157 C88.25662668 83.80005837 94.14784603 87.86496301 100 92 C97.99340195 76.94023191 95.43056826 62.04278062 92.5625 47.125 C91.79044631 43.08641543 91.02128958 39.04728698 90.25390625 35.0078125 C90.06720367 34.02653381 89.8805011 33.04525513 89.68814087 32.03424072 C87.67236952 21.37712209 85.82337991 10.6914866 84 0 C89.76858057 0.570265 95.42842103 1.35873562 101.11328125 2.48828125 C102.21678169 2.70498726 102.21678169 2.70498726 103.34257507 2.92607117 C104.88657665 3.23085474 106.43017962 3.53766421 107.97338867 3.84643555 C110.2951434 4.30904172 112.61907717 4.759274 114.94335938 5.20898438 C132.89982927 8.74493881 147.76728565 13.8126809 161 27 C161.95712891 27.92232422 161.95712891 27.92232422 162.93359375 28.86328125 C175.14604426 41.56531775 178.49293842 58.07821382 178.29296875 75.07421875 C178.28735889 76.49338833 178.28309538 77.91256381 178.28010559 79.33174133 C178.26876595 83.02908973 178.2393958 86.72607271 178.20599365 90.42327881 C178.16959533 94.8796102 178.15607964 99.33606521 178.13863373 103.79250336 C178.10974914 110.52858808 178.05218806 117.26387436 178 124 C162.16 124 146.32 124 130 124 C130 102.88 130 81.76 130 60 C124.72 60 119.44 60 114 60 C114 94.32 114 128.64 114 164 C101.191875 164.309375 101.191875 164.309375 88.125 164.625 C85.44906738 164.71604004 82.77313477 164.80708008 80.01611328 164.90087891 C62.04213268 165.25605163 62.04213268 165.25605163 57.24682617 161.83935547 C54.80777879 159.35440778 52.97860316 156.84869313 51 154 C45.2900221 149.91438396 39.76927015 148.1337983 32.734375 148.53125 C27.86217091 149.36648499 23.90396125 150.94032102 20 154 C18.20055855 156.48104877 18.20055855 156.48104877 16.625 159.1875 C13.77822804 163.75714104 13.77822804 163.75714104 10.18359375 164.87890625 C8.10474513 165.12607849 6.02232953 165.34491556 3.9375 165.53515625 C-2.28600907 166.51999346 -6.29550874 170.80392081 -9.9375 175.6875 C-13.85258172 181.97535851 -13.25541572 187.90954738 -13.3125 195.125 C-13.34150391 196.32382812 -13.37050781 197.52265625 -13.40039062 198.7578125 C-13.46071104 207.22123066 -12.58231431 213.73398355 -7.03515625 220.33984375 C-6.05869141 221.13068359 -6.05869141 221.13068359 -5.0625 221.9375 C-4.41410156 222.48277344 -3.76570313 223.02804687 -3.09765625 223.58984375 C1.69005707 226.80839963 6.06817001 227.30166162 11.7277832 227.31884766 C12.48929184 227.32889328 13.25080048 227.3389389 14.03538513 227.34928894 C16.54050983 227.38006237 19.04552794 227.39713966 21.55078125 227.4140625 C23.29242364 227.43277886 25.034057 227.45235263 26.77568054 227.4727478 C31.35078609 227.52402558 35.92592101 227.56367458 40.50115967 227.60089111 C45.17337284 227.64095807 49.84546422 227.69203814 54.51757812 227.7421875 C63.67830828 227.83889531 72.8390889 227.92229824 82 228 C82.33 238.56 82.66 249.12 83 260 C45.71 260 8.42 260 -30 260 C-30 191.36 -30 122.72 -30 52 C-35.28 52 -40.56 52 -46 52 C-46 75.76 -46 99.52 -46 124 C-61.84 124 -77.68 124 -94 124 C-94.16043524 108.58930415 -94.16043524 108.58930415 -94.1953125 101.93359375 C-94.2190668 97.42216775 -94.24692128 92.91107163 -94.30175781 88.39990234 C-94.34576773 84.75587519 -94.36925081 81.1122026 -94.37950897 77.46792984 C-94.38680299 76.08948319 -94.40104073 74.71105215 -94.42292023 73.33275986 C-94.69471497 55.47285777 -89.72838189 40.35375806 -77.3359375 27.34375 C-76.56507812 26.5703125 -75.79421875 25.796875 -75 25 C-74.31164062 24.2884375 -73.62328125 23.576875 -72.9140625 22.84375 C-61.58094625 11.88980864 -48.08234543 8.58281539 -33.09570312 5.61474609 C-29.79338958 4.95897121 -26.49841086 4.27220953 -23.203125 3.58203125 C-20.94821497 3.1157426 -18.69301181 2.65086898 -16.4375 2.1875 C-15.37297607 1.96819824 -14.30845215 1.74889648 -13.21166992 1.52294922 C-12.21240479 1.32330566 -11.21313965 1.12366211 -10.18359375 0.91796875 C-9.30243896 0.74031982 -8.42128418 0.5626709 -7.51342773 0.37963867 C-4.9690309 -0.0046777 -2.56907314 -0.06773614 0 0 Z " fill="#B3DC7E" transform="translate(118,228)"/>
<path d="M0 0 C3.37946604 1.12648868 3.6030624 1.51794506 5.3125 4.4375 C5.74216064 5.1584082 6.17182129 5.87931641 6.61450195 6.62207031 C7.07171631 7.40678711 7.52893066 8.19150391 8 9 C8.99159142 10.66259189 9.98512741 12.32402535 10.98046875 13.984375 C11.48497559 14.82806641 11.98948242 15.67175781 12.50927734 16.54101562 C14.7030101 20.15963278 16.99792378 23.70787403 19.3125 27.25 C24.72517293 35.55657727 30.0524828 43.91562265 35.3671875 52.28515625 C37.82289345 56.1521951 40.28705256 60.01365666 42.7578125 63.87109375 C45.70234727 68.46950911 48.62931158 73.07861157 51.54199219 77.69726562 C52.7685868 79.63451284 54.01043483 81.56051251 55.2578125 83.484375 C64.15138815 97.72949617 67.6309016 113.64429399 64.58398438 130.27001953 C60.51590194 147.73214559 50.64956419 162.73723047 35.5234375 172.54296875 C20.6413834 181.13585757 3.64630815 185.01222207 -13.35546875 181.12109375 C-31.10582608 176.32007664 -45.32412132 165.59371519 -55 150 C-56.9480055 146.41851073 -58.55285333 142.80972323 -60 139 C-60.3196875 138.19691406 -60.639375 137.39382812 -60.96875 136.56640625 C-66.32881735 120.65991009 -63.53323047 103.35356251 -56.34375 88.6015625 C-54.35039309 84.97804507 -52.22857057 81.48203346 -50 78 C-49.53561523 77.27361328 -49.07123047 76.54722656 -48.59277344 75.79882812 C-45.91433826 71.62928743 -43.20784726 67.47874435 -40.48828125 63.3359375 C-36.96500833 57.96252603 -33.5063753 52.54954969 -30.0625 47.125 C-29.4852417 46.21621094 -28.9079834 45.30742188 -28.31323242 44.37109375 C-27.13788793 42.52004447 -25.96284057 40.6688065 -24.78808594 38.81738281 C-21.75785499 34.04282449 -18.72295703 29.27123699 -15.6875 24.5 C-15.10734131 23.58798828 -14.52718262 22.67597656 -13.92944336 21.73632812 C-9.30870379 14.47639343 -4.66481316 7.23169447 0 0 Z " fill="#FD816D" transform="translate(391,50)"/>
<path d="M0 0 C5.84969654 0.61367375 9.08160208 3.86802064 13 8 C18.66916637 15.69743117 19.3086514 23.30959866 19.30078125 32.5390625 C19.30506638 33.65630707 19.3093515 34.77355164 19.31376648 35.9246521 C19.3195 38.28651249 19.32001726 40.64839055 19.31567383 43.01025391 C19.31252916 46.59178528 19.33593317 50.1724778 19.36132812 53.75390625 C19.36360299 56.05729064 19.36430375 58.36067722 19.36328125 60.6640625 C19.372491 61.72074127 19.38170074 62.77742004 19.39118958 63.86611938 C19.3037226 78.20066294 15.29364151 90.60403829 5.5 101.25 C-5.1483235 111.35143075 -18.0280896 115.50795307 -32.4765625 115.24609375 C-45.57744226 114.33106556 -56.72976485 108.38362405 -65.703125 98.91015625 C-74.65978033 87.56201302 -77.33505633 75.36077552 -77.1953125 61.18359375 C-77.1924826 60.08652603 -77.18965271 58.98945831 -77.18673706 57.85914612 C-77.17561997 54.38514902 -77.15053112 50.91141803 -77.125 47.4375 C-77.11495925 45.0696652 -77.10583532 42.70182633 -77.09765625 40.33398438 C-77.07570844 34.55590012 -77.04231609 28.77796908 -77 23 C-75.89591797 23.31723022 -75.89591797 23.31723022 -74.76953125 23.64086914 C-73.79371094 23.91535889 -72.81789063 24.18984863 -71.8125 24.47265625 C-70.36810547 24.88269897 -70.36810547 24.88269897 -68.89453125 25.30102539 C-60.25963342 27.38619007 -52.94189572 25.79161473 -45 22 C-42.05685185 19.91690066 -42.05685185 19.91690066 -40 18 C-39.34 18 -38.68 18 -38 18 C-37.566875 17.1028125 -37.566875 17.1028125 -37.125 16.1875 C-36 14 -36 14 -34 11 C-31.42699825 10.6551338 -28.9594148 10.45123567 -26.375 10.3125 C-17.52738398 9.59772379 -6.50278705 6.50278705 0 0 Z " fill="#EFCFB3" transform="translate(189,77)"/>
<path d="M0 0 C3.37946604 1.12648868 3.6030624 1.51794506 5.3125 4.4375 C5.74216064 5.1584082 6.17182129 5.87931641 6.61450195 6.62207031 C7.07171631 7.40678711 7.52893066 8.19150391 8 9 C8.99159142 10.66259189 9.98512741 12.32402535 10.98046875 13.984375 C11.48497559 14.82806641 11.98948242 15.67175781 12.50927734 16.54101562 C14.7030101 20.15963278 16.99792378 23.70787403 19.3125 27.25 C24.72517293 35.55657727 30.0524828 43.91562265 35.3671875 52.28515625 C37.82289345 56.1521951 40.28705256 60.01365666 42.7578125 63.87109375 C45.70234727 68.46950911 48.62931158 73.07861157 51.54199219 77.69726562 C52.7685868 79.63451284 54.01043483 81.56051251 55.2578125 83.484375 C64.15138815 97.72949617 67.6309016 113.64429399 64.58398438 130.27001953 C60.51590194 147.73214559 50.64956419 162.73723047 35.5234375 172.54296875 C20.6413834 181.13585757 3.64630815 185.01222207 -13.35546875 181.12109375 C-31.10582608 176.32007664 -45.32412132 165.59371519 -55 150 C-56.9480055 146.41851073 -58.55285333 142.80972323 -60 139 C-60.3196875 138.19691406 -60.639375 137.39382812 -60.96875 136.56640625 C-66.32881735 120.65991009 -63.53323047 103.35356251 -56.34375 88.6015625 C-54.35039309 84.97804507 -52.22857057 81.48203346 -50 78 C-49.53561523 77.27361328 -49.07123047 76.54722656 -48.59277344 75.79882812 C-45.91433826 71.62928743 -43.20784726 67.47874435 -40.48828125 63.3359375 C-36.96500833 57.96252603 -33.5063753 52.54954969 -30.0625 47.125 C-29.4852417 46.21621094 -28.9079834 45.30742188 -28.31323242 44.37109375 C-27.13788793 42.52004447 -25.96284057 40.6688065 -24.78808594 38.81738281 C-21.75785499 34.04282449 -18.72295703 29.27123699 -15.6875 24.5 C-15.10734131 23.58798828 -14.52718262 22.67597656 -13.92944336 21.73632812 C-9.30870379 14.47639343 -4.66481316 7.23169447 0 0 Z M0 30 C-1.67716223 32.34181542 -3.22490987 34.68566773 -4.75 37.125 C-5.47255981 38.26159058 -5.47255981 38.26159058 -6.2097168 39.42114258 C-7.25980721 41.07428825 -8.30678676 42.72941298 -9.35107422 44.38623047 C-11.57736925 47.91520805 -13.82305018 51.43169572 -16.06738281 54.94921875 C-17.8366357 57.72537158 -19.60019213 60.50508571 -21.36328125 63.28515625 C-23.82240105 67.15861953 -26.30061999 71.01893283 -28.79296875 74.87109375 C-45.29012454 99.99845941 -45.29012454 99.99845941 -46.3125 129.35546875 C-42.04325404 143.10599844 -34.09410554 153.82484296 -21.5 160.9375 C-9.43584653 166.96957673 3.05387939 167.75056996 16.09375 164.02734375 C28.63125809 159.59540205 38.04782539 151.72955396 44 139.8125 C49.4076241 128.43829066 51.18632692 116.1493003 47.5625 103.9375 C44.64738571 96.42431884 40.32564072 89.7554157 36 83 C35.42137207 82.09024414 34.84274414 81.18048828 34.24658203 80.24316406 C30.89804438 74.97883925 27.53509096 69.72400081 24.16015625 64.4765625 C19.5848402 57.36178032 15.04740696 50.2231742 10.5168457 43.07983398 C9.47298331 41.43638932 8.42657136 39.79455971 7.37695312 38.15478516 C6.50807451 36.79508255 5.64637856 35.43073826 4.79492188 34.06005859 C3.91536728 32.6722899 2.96586103 31.3291466 2 30 C1.34 30 0.68 30 0 30 Z " fill="#040303" transform="translate(391,50)"/>
<path d="M0 0 C1.83097733 -0.0099852 1.83097733 -0.0099852 3.69894409 -0.02017212 C6.27584331 -0.03026825 8.85276852 -0.03499008 11.4296875 -0.03466797 C15.33378226 -0.03902522 19.23673106 -0.07533631 23.140625 -0.11328125 C47.5179693 -0.22491308 47.5179693 -0.22491308 58.2421875 4.3359375 C58.93521973 4.61308594 59.62825195 4.89023437 60.34228516 5.17578125 C76.12832694 12.04575447 86.23927719 24.62015084 93.01953125 40.04296875 C98.08161278 53.67662605 97.6069106 68.92412975 92.2421875 82.3359375 C88.2821875 81.6759375 84.3221875 81.0159375 80.2421875 80.3359375 C79.84 78.1703125 79.84 78.1703125 79.4296875 75.9609375 C76.19897381 60.24993257 69.7181863 50.49082024 57.2421875 40.3359375 C59.2221875 36.0459375 61.2021875 31.7559375 63.2421875 27.3359375 C61.2621875 26.6759375 59.2821875 26.0159375 57.2421875 25.3359375 C55.60721062 24.65094719 53.9809674 23.94447382 52.3671875 23.2109375 C51.19542969 22.68113281 51.19542969 22.68113281 50 22.140625 C49.41992188 21.87507813 48.83984375 21.60953125 48.2421875 21.3359375 C48.0359375 22.1196875 47.8296875 22.9034375 47.6171875 23.7109375 C44.0566553 33.09779511 38.74161676 41.2596627 29.4609375 45.65234375 C24.70104817 47.48848385 21.42889327 48.3359375 16.2421875 48.3359375 C16.2421875 43.0559375 16.2421875 37.7759375 16.2421875 32.3359375 C10.9621875 32.3359375 5.6821875 32.3359375 0.2421875 32.3359375 C0.27699219 33.71007813 0.31179687 35.08421875 0.34765625 36.5 C0.37580522 38.32030023 0.40310419 40.14061374 0.4296875 41.9609375 C0.45482422 42.86457031 0.47996094 43.76820312 0.50585938 44.69921875 C0.57272597 50.80636748 0.03629382 55.2726074 -4.2578125 59.98046875 C-9.66502115 64.19076924 -14.03674927 65.16456173 -20.7578125 64.3359375 C-26.0613353 61.63414287 -29.85613548 58.04096855 -31.7578125 52.3359375 C-32.30006709 47.66899228 -32.2276581 44.25822702 -30.0703125 40.0234375 C-25.25360319 34.4256402 -23.46390784 33.43680826 -15.7578125 32.3359375 C-15.7578125 27.0559375 -15.7578125 21.7759375 -15.7578125 16.3359375 C-25.72990358 17.99795268 -34.81488046 20.72254089 -41.16796875 29.22265625 C-45.69117029 36.14592392 -47.05709921 42.28443099 -47.171875 50.453125 C-47.19124115 51.31028107 -47.2106073 52.16743713 -47.2305603 53.05056763 C-47.29002506 55.77059178 -47.33660819 58.49065902 -47.3828125 61.2109375 C-47.4210228 63.06251778 -47.46007628 64.91408087 -47.5 66.765625 C-47.59569914 71.28892175 -47.67985156 75.81230166 -47.7578125 80.3359375 C-53.6978125 81.3259375 -53.6978125 81.3259375 -59.7578125 82.3359375 C-62.15891911 77.32493241 -63.46701004 72.91250231 -63.7578125 67.3359375 C-63.82226562 66.14484375 -63.88671875 64.95375 -63.953125 63.7265625 C-64.56684001 46.95986844 -59.01878803 32.25464241 -48.0078125 19.4609375 C-34.93919393 5.85850243 -18.47059667 0.03539011 0 0 Z " fill="#636B76" transform="translate(143.7578125,23.6640625)"/>
<path d="M0 0 C10.56 0 21.12 0 32 0 C32 39.6 32 79.2 32 120 C21.44 120 10.88 120 0 120 C0 80.4 0 40.8 0 0 Z " fill="#F0D0B4" transform="translate(40,368)"/>
<path d="M0 0 C10.56 0 21.12 0 32 0 C32.11546381 6.33254869 32.21479766 12.66137373 32.2746582 18.99414062 C32.29963783 21.14335579 32.33363366 23.29248745 32.37719727 25.44140625 C32.91784878 52.81745471 32.91784878 52.81745471 22.9453125 63.46875 C15.23859475 69.53508205 7.01569788 72.15853204 -2.60546875 72.09765625 C-3.44467361 72.0962413 -4.28387848 72.09482635 -5.14851379 72.09336853 C-7.82821216 72.08777215 -10.5078269 72.07522035 -13.1875 72.0625 C-15.00455608 72.05748453 -16.82161348 72.05292171 -18.63867188 72.04882812 C-23.09248013 72.03780391 -27.54622589 72.02054178 -32 72 C-32 66.72 -32 61.44 -32 56 C-37.28 56 -42.56 56 -48 56 C-48 61.28 -48 66.56 -48 72 C-53.28 72 -58.56 72 -64 72 C-64 61.44 -64 50.88 -64 40 C-56.41882578 39.90810698 -48.83958846 39.82848206 -41.25830078 39.78027344 C-38.68010912 39.76017437 -36.10196296 39.73289059 -33.52392578 39.69824219 C-29.81531539 39.64965153 -26.10730844 39.62701342 -22.3984375 39.609375 C-21.24822113 39.58872986 -20.09800476 39.56808472 -18.91293335 39.54681396 C-12.61538917 39.54505335 -8.75529069 39.71329278 -4 44 C0 48.42105263 0 48.42105263 0 51 C0.91523438 50.566875 1.83046875 50.13375 2.7734375 49.6875 C4.55621094 48.8521875 4.55621094 48.8521875 6.375 48 C7.55835938 47.443125 8.74171875 46.88625 9.9609375 46.3125 C13 45 13 45 15 45 C14.21287579 43.46587948 13.39336926 41.94837609 12.5625 40.4375 C12.11003906 39.59058594 11.65757812 38.74367188 11.19140625 37.87109375 C8.98125957 34.97544702 7.34490495 33.9522596 4.3125 32.0625 C1.2083851 29.74272248 0.14667262 28.64029845 -0.72875977 24.81860352 C-0.88600302 21.01996438 -0.78503403 17.35958261 -0.5625 13.5625 C-0.2840625 6.8490625 -0.2840625 6.8490625 0 0 Z " fill="#EFCFB3" transform="translate(248,368)"/>
<path d="M0 0 C5.29699334 1.25781447 7.94166013 3.55675525 11.62548828 7.47509766 C15.74718489 14.38038097 14.66802254 22.20643583 14.27490234 29.99169922 C14.22465751 31.72854952 14.17904491 33.46554033 14.13818359 35.20263672 C14.02881373 39.42750435 13.85679124 43.64552924 13.64990234 47.86669922 C7.59931114 47.94086727 1.54898469 47.99531009 -4.50195312 48.03149414 C-6.56026824 48.04657872 -8.61855124 48.06704909 -10.67675781 48.09301758 C-13.63566009 48.12941507 -16.59413733 48.14642888 -19.55322266 48.15966797 C-20.93311371 48.18289375 -20.93311371 48.18289375 -22.34088135 48.20658875 C-28.69567072 48.20826196 -28.69567072 48.20826196 -31.89990234 46.53588867 C-35.4782853 42.41713374 -34.64863047 36.63585561 -34.72509766 31.49169922 C-34.76248047 30.54552734 -34.79986328 29.59935547 -34.83837891 28.62451172 C-34.8956748 24.0917698 -34.81234121 21.58673245 -32.31884766 17.70263672 C-28.56601311 15.38180483 -25.70384258 15.59585899 -21.47509766 15.86669922 C-18.46769754 15.8989784 -16.35772716 15.57347685 -13.35009766 14.86669922 C-10.47310305 11.55748008 -9.23781368 8.92891647 -7.61181641 4.87060547 C-5.85860846 0.6965593 -4.52842623 -0.18018661 0 0 Z " fill="#EECEB3" transform="translate(154.35009765625,392.13330078125)"/>
<path d="M0 0 C5.28 0 10.56 0 16 0 C16 7.92 16 15.84 16 24 C23.92 24 31.84 24 40 24 C40 29.28 40 34.56 40 40 C32.08 40 24.16 40 16 40 C16 47.92 16 55.84 16 64 C10.72 64 5.44 64 0 64 C0 56.08 0 48.16 0 40 C-7.92 40 -15.84 40 -24 40 C-24 34.72 -24 29.44 -24 24 C-16.08 24 -8.16 24 0 24 C0 16.08 0 8.16 0 0 Z " fill="#000000" transform="translate(384,136)"/>
<path d="M0 0 C0.79535156 0.16242188 1.59070313 0.32484375 2.41015625 0.4921875 C6.78304329 1.11076782 11.02812595 1.1456851 15.4375 1.125 C16.25798828 1.12886719 17.07847656 1.13273438 17.92382812 1.13671875 C22.7212763 1.12906121 27.26944388 0.80222082 32 0 C32.35111158 6.79108319 31.52413901 11.38642034 28.71875 17.53515625 C28.38580933 18.29928329 28.05286865 19.06341034 27.70983887 19.85069275 C26.65516246 22.26169722 25.57813236 24.66190685 24.5 27.0625 C23.77583501 28.70701874 23.05316402 30.35219623 22.33203125 31.99804688 C20.57185716 36.00651598 18.79158019 40.00547502 17 44 C16.34 44 15.68 44 15 44 C12.8424259 39.18945136 10.70716389 34.36981536 8.59130859 29.54077148 C7.86970787 27.90207596 7.14225746 26.26594262 6.40869141 24.63256836 C5.3504116 22.27339631 4.31407009 19.90556583 3.28125 17.53515625 C2.95314331 16.81602554 2.62503662 16.09689484 2.2869873 15.35597229 C0.00006638 10.02500011 -0.29955622 5.79391659 0 0 Z " fill="#EDCEB2" transform="translate(144,206)"/>
<path d="M0 0 C15.84 0 31.68 0 48 0 C48 5.28 48 10.56 48 16 C32.16 16 16.32 16 0 16 C0 10.72 0 5.44 0 0 Z " fill="#CCD1D9" transform="translate(344,280)"/>
<path d="M0 0 C1.92184122 2.88276183 2.38999593 4.17906701 2.96142578 7.46801758 C3.20144821 8.82006035 3.20144821 8.82006035 3.44631958 10.19941711 C3.61098724 11.17130478 3.77565491 12.14319244 3.9453125 13.14453125 C4.12005096 14.14707443 4.29478943 15.14961761 4.474823 16.18254089 C4.8429508 18.30444739 5.20753427 20.42697137 5.56884766 22.55004883 C6.12131658 25.79089267 6.68671776 29.02928173 7.25390625 32.26757812 C7.61015115 34.33059529 7.96564452 36.3937424 8.3203125 38.45703125 C8.48902863 39.42284622 8.65774475 40.38866119 8.83157349 41.38374329 C9.60673013 45.97696413 10.20981374 50.32115349 10 55 C3.87802011 51.82968899 -1.81532618 48.19825044 -7.5 44.3125 C-8.21865234 43.82483154 -8.93730469 43.33716309 -9.67773438 42.8347168 C-10.35126953 42.36976807 -11.02480469 41.90481934 -11.71875 41.42578125 C-12.63043945 40.79796753 -12.63043945 40.79796753 -13.56054688 40.1574707 C-15 39 -15 39 -16 37 C-15.02869919 34.34650504 -13.98951813 31.80049051 -12.8515625 29.21875 C-12.51957855 28.44946167 -12.1875946 27.68017334 -11.84555054 26.88757324 C-10.77932451 24.42181418 -9.70224123 21.96096382 -8.625 19.5 C-7.90554751 17.84014806 -7.18678853 16.17999534 -6.46875 14.51953125 C-1.33458534 2.66917067 -1.33458534 2.66917067 0 0 Z " fill="#9BCD64" transform="translate(186,231)"/>
<path d="M0 0 C2.96214949 3.49965211 4.61726737 7.41741402 6.35546875 11.609375 C6.66196854 12.33618469 6.96846832 13.06299438 7.28425598 13.81182861 C8.25723192 16.12239605 9.22245714 18.43610955 10.1875 20.75 C10.8477976 22.32182879 11.50859937 23.8934459 12.16992188 25.46484375 C13.78579785 29.30746839 15.39473272 33.15293216 17 37 C13.91566717 40.21553002 10.9172344 42.92092804 7.171875 45.33203125 C5.84929687 46.18764648 5.84929687 46.18764648 4.5 47.06054688 C3.5925 47.63869141 2.685 48.21683594 1.75 48.8125 C0.82703125 49.40998047 -0.0959375 50.00746094 -1.046875 50.62304688 C-7.84991071 55 -7.84991071 55 -9 55 C-8.53692615 44.66353023 -6.86526579 34.67842275 -4.98876953 24.52148438 C-4.49469375 21.84626885 -4.01026234 19.16943748 -3.52734375 16.4921875 C-3.2166941 14.78375438 -2.90551596 13.07541726 -2.59375 11.3671875 C-2.44893188 10.57037567 -2.30411377 9.77356384 -2.15490723 8.9526062 C-1.58691584 5.8867987 -0.98739358 2.96218074 0 0 Z " fill="#9BCD64" transform="translate(133,231)"/>
<path d="M0 0 C5.28 0 10.56 0 16 0 C16 10.56 16 21.12 16 32 C10.72 32 5.44 32 0 32 C0 21.44 0 10.88 0 0 Z " fill="#AAB2BD" transform="translate(360,312)"/>
<path d="M0 0 C5.28 0 10.56 0 16 0 C16 10.56 16 21.12 16 32 C10.72 32 5.44 32 0 32 C0 21.44 0 10.88 0 0 Z " fill="#AAB2BD" transform="translate(440,280)"/>
<path d="M0 0 C5.28 0 10.56 0 16 0 C16 10.56 16 21.12 16 32 C5 32 5 32 1 29 C-0.07917226 25.76248322 -0.11425601 23.42248229 -0.09765625 20.01953125 C-0.09443359 18.85615234 -0.09121094 17.69277344 -0.08789062 16.49414062 C-0.07951172 15.27919922 -0.07113281 14.06425781 -0.0625 12.8125 C-0.05798828 11.58595703 -0.05347656 10.35941406 -0.04882812 9.09570312 C-0.03703076 6.06378135 -0.01909514 3.0318846 0 0 Z " fill="#B3DC7E" transform="translate(216,456)"/>
<path d="M0 0 C0 10.56 0 21.12 0 32 C-7.91317365 30.86954662 -7.91317365 30.86954662 -10.8125 28.1875 C-11.37582031 27.68605469 -11.93914062 27.18460938 -12.51953125 26.66796875 C-16.17097285 22.55407545 -16.43409959 18.80418144 -16.31640625 13.46875 C-15.6851283 8.54322326 -12.96946378 5.85405143 -9.375 2.6875 C-5.56066756 -0.02268357 -5.12122052 0 0 0 Z " fill="#E9CAAF" transform="translate(96,120)"/>
<path d="M0 0 C7.91317365 1.13045338 7.91317365 1.13045338 10.8125 3.8125 C11.37582031 4.31394531 11.93914062 4.81539063 12.51953125 5.33203125 C16.17097285 9.44592455 16.43409959 13.19581856 16.31640625 18.53125 C15.69970296 23.34305841 12.99340629 26.00659371 9.6875 29.3125 C7 31 7 31 0 32 C0 21.44 0 10.88 0 0 Z " fill="#EACAAF" transform="translate(224,120)"/>
</svg>
