<?xml version="1.0" encoding="UTF-8"?>
<svg version="1.1" xmlns="http://www.w3.org/2000/svg" width="970" height="322">
<path d="M0 0 C320.1 0 640.2 0 970 0 C970 106.26 970 212.52 970 322 C649.9 322 329.8 322 0 322 C0 215.74 0 109.48 0 0 Z " fill="#8D4E63" transform="translate(0,0)"/>
<path d="M0 0 C3.95831809 -0.02892857 7.91660917 -0.04677427 11.875 -0.0625 C13.56689453 -0.07506836 13.56689453 -0.07506836 15.29296875 -0.08789062 C16.36933594 -0.09111328 17.44570313 -0.09433594 18.5546875 -0.09765625 C19.54968262 -0.10289307 20.54467773 -0.10812988 21.56982422 -0.11352539 C24 0 24 0 26 1 C26.625 3.0625 26.625 3.0625 27 5 C27.83273438 4.67902344 28.66546875 4.35804688 29.5234375 4.02734375 C38.93442469 1.24634416 49.17400472 2.0535472 57.9921875 6.234375 C62.17504376 8.68976595 66.10329866 11.45367978 69.93017578 14.43310547 C74.02678203 17.57080241 78.06724896 19.49030991 83 21 C83.61270752 21.19182861 84.22541504 21.38365723 84.85668945 21.58129883 C87.6582511 22.12859103 90.26816175 22.0382391 93.12109375 21.95703125 C94.30380859 21.93576172 95.48652344 21.91449219 96.70507812 21.89257812 C99.18973424 21.83927048 101.6741663 21.77419905 104.15820312 21.69726562 C105.34220703 21.67986328 106.52621094 21.66246094 107.74609375 21.64453125 C108.82560303 21.61721924 109.9051123 21.58990723 111.01733398 21.56176758 C114.76469238 22.11235351 116.41211039 23.26652474 119 26 C119 27.32 119 28.64 119 30 C117.04604346 30.80240849 115.08653232 31.59129309 113.125 32.375 C112.03445312 32.81585938 110.94390625 33.25671875 109.8203125 33.7109375 C100.41726759 37.07399724 91.28741736 37.25771002 81.375 37.125 C79.43947266 37.11146484 79.43947266 37.11146484 77.46484375 37.09765625 C74.30969751 37.0742848 71.15495074 37.04152091 68 37 C67.67 38.65 67.34 40.3 67 42 C71.28257592 42.1007027 75.56448105 42.17230689 79.84790039 42.21972656 C81.2975671 42.23954342 82.74715728 42.26660535 84.1965332 42.30175781 C97.24413832 42.60971934 110.77501239 41.33941498 122 34 C122.41741455 33.00532715 122.8348291 32.0106543 123.26489258 30.98583984 C125 28 125 28 128.15112305 26.76806641 C129.42511963 26.54812012 130.69911621 26.32817383 132.01171875 26.1015625 C132.69877396 25.97687592 133.38582916 25.85218933 134.09370422 25.72372437 C135.54658243 25.46483715 137.00174312 25.21848658 138.45874023 24.98388672 C140.66723417 24.62826331 142.86716043 24.23790931 145.06835938 23.83984375 C151.76165498 22.66868138 158.19532175 21.64121691 165 22 C167.5 24 167.5 24 169 26 C165.71880527 28.78139299 162.64831655 30.81937733 158.72265625 32.56640625 C157.14363525 33.28111084 157.14363525 33.28111084 155.53271484 34.01025391 C154.38754395 34.52249512 153.24237305 35.03473633 152.0625 35.5625 C143.30702524 39.53820626 134.6347571 43.6373973 126.05078125 47.97265625 C125.20711502 48.39839432 124.36344879 48.82413239 123.49421692 49.26277161 C119.31412756 51.37599532 115.14063828 53.50144652 110.97290039 55.63891602 C88.00869899 67.33997939 88.00869899 67.33997939 75 65 C68.85419464 62.84772905 63.0282627 59.95817053 57.20043945 57.07299805 C54.1796271 55.5999624 51.09972007 54.29802891 48 53 C46.24032789 52.24739598 44.48126509 51.49336647 42.72265625 50.73828125 C41.33530273 50.14370117 41.33530273 50.14370117 39.91992188 49.53710938 C35.61328125 47.69140625 31.30664062 45.84570312 27 44 C26.67 45.65 26.34 47.3 26 49 C22.20283743 49.54727788 18.78273461 49.72201573 15 49 C11.94420535 46.56823078 10.59543669 43.51275973 9 40 C8.47664063 38.87464844 7.95328125 37.74929687 7.4140625 36.58984375 C2.19083511 24.76211794 -0.26490605 12.95913865 0 0 Z " fill="#FDFDFD" transform="translate(39,173)"/>
<path d="M0 0 C5.61 0 11.22 0 17 0 C17 27.72 17 55.44 17 84 C11.39 84 5.78 84 0 84 C-0.33 82.68 -0.66 81.36 -1 80 C-2.093125 80.639375 -3.18625 81.27875 -4.3125 81.9375 C-11.48246533 86.13125331 -19.89668071 85.77050579 -28 85 C-31.35005307 84.07236694 -33.08214886 83.02005079 -36 81 C-36.9075 80.38125 -37.815 79.7625 -38.75 79.125 C-44.59146448 73.60806132 -47.99229102 66.38086149 -48.43359375 58.37890625 C-48.45695911 56.77360701 -48.45778409 55.16784113 -48.4375 53.5625 C-48.42992676 52.72428711 -48.42235352 51.88607422 -48.41455078 51.02246094 C-48.25228371 44.95106682 -47.55812372 40.0703263 -44 35 C-43.5875 34.3709375 -43.175 33.741875 -42.75 33.09375 C-38.2838552 27.10505583 -31.30865165 23.39007688 -24 22 C-14.48004946 21.30381314 -8.08451363 22.61032425 0 28 C0 18.76 0 9.52 0 0 Z " fill="#FBFAFA" transform="translate(567,112)"/>
<path d="M0 0 C5.28 0 10.56 0 16 0 C16 9.24 16 18.48 16 28 C19.3 26.02 22.6 24.04 26 22 C33.63689236 19.45436921 41.31796807 20.21662955 48.5 23.6875 C55.74313541 27.75699845 60.91211091 32.8738207 64.08984375 40.67578125 C66.49061639 49.44426843 66.32415842 60.59606164 62.328125 68.85546875 C58.08823968 75.70163652 53.02574968 81.01348912 45.22265625 83.5859375 C42.17233348 84.15418744 39.22643505 84.17082562 36.125 84.1875 C34.93132812 84.20167969 33.73765625 84.21585937 32.5078125 84.23046875 C26.07435426 83.80778051 21.40389057 81.24233434 16 78 C16 79.65 16 81.3 16 83 C10.72 83 5.44 83 0 83 C0 55.61 0 28.22 0 0 Z " fill="#FDFCFC" transform="translate(256,113)"/>
<path d="M0 0 C0 0.66 0 1.32 0 2 C0.66 2 1.32 2 2 2 C2 0.02 2 -1.96 2 -4 C7.28 -4 12.56 -4 18 -4 C18 16.13 18 36.26 18 57 C12.72 57 7.44 57 2 57 C2 55.35 2 53.7 2 52 C1.46890625 52.34933594 0.9378125 52.69867188 0.390625 53.05859375 C-0.66898438 53.74115234 -0.66898438 53.74115234 -1.75 54.4375 C-2.44609375 54.88996094 -3.1421875 55.34242188 -3.859375 55.80859375 C-10.79001584 59.66597597 -21.50782338 59.24042038 -29.02734375 57.1640625 C-36.61200927 53.68142718 -41.80077957 48.01334185 -45.4375 40.5625 C-48.51135929 31.95303263 -48.50059869 20.96383 -45.375 12.375 C-41.20489343 3.84655287 -35.78996508 -0.48981592 -27 -4 C-17.36295963 -7.05564695 -8.35959965 -5.28371987 0 0 Z " fill="#FDFCFC" transform="translate(792,139)"/>
<path d="M0 0 C2.3000739 1.18777564 4.24205437 2.55501024 6.26171875 4.16796875 C6.78121094 3.83023438 7.30070313 3.4925 7.8359375 3.14453125 C8.53332031 2.69851562 9.23070312 2.2525 9.94921875 1.79296875 C10.97595703 1.13167969 10.97595703 1.13167969 12.0234375 0.45703125 C18.65569963 -3.36259615 24.72585543 -3.55525984 32.26171875 -2.83203125 C39.27462654 -0.93526525 43.91337178 2.72931783 48.01171875 8.73046875 C49.89806686 12.40884757 50.38705419 15.55123445 50.37524414 19.66113281 C50.37513084 20.98204926 50.37513084 20.98204926 50.37501526 22.32965088 C50.36985397 23.27145203 50.36469269 24.21325317 50.359375 25.18359375 C50.35796005 26.15455994 50.3565451 27.12552612 50.35508728 28.12591553 C50.34949538 31.2232981 50.33694434 34.32060807 50.32421875 37.41796875 C50.3192027 39.51953021 50.31463998 41.62109279 50.31054688 43.72265625 C50.2995286 48.87112167 50.28226949 54.01953291 50.26171875 59.16796875 C44.98171875 59.16796875 39.70171875 59.16796875 34.26171875 59.16796875 C34.23198975 57.38181152 34.23198975 57.38181152 34.20166016 55.55957031 C34.1255488 51.13878343 34.03683981 46.71832332 33.94433594 42.29785156 C33.90606907 40.3851568 33.87121217 38.47239064 33.83984375 36.55957031 C33.79414348 33.80898533 33.7361573 31.05889092 33.67578125 28.30859375 C33.66423004 27.45428772 33.65267883 26.59998169 33.64077759 25.7197876 C33.6209079 24.91925964 33.60103821 24.11873169 33.58056641 23.29394531 C33.56724274 22.59223206 33.55391907 21.8905188 33.54019165 21.1675415 C33.0927826 17.95492386 31.82450942 15.77405101 29.63671875 13.41796875 C26.19541719 11.6067574 23.01680476 11.51805002 19.26171875 12.16796875 C15.96231935 13.81766845 13.90004117 14.99332954 12.12353516 18.26245117 C10.95823971 22.19111439 10.90615554 25.88994178 10.84765625 29.96875 C10.8282901 30.80512497 10.80892395 31.64149994 10.78897095 32.5032196 C10.72941683 35.16220045 10.68288701 37.82122515 10.63671875 40.48046875 C10.59851669 42.28842984 10.55946366 44.09637317 10.51953125 45.90429688 C10.42214061 50.32542591 10.3423815 54.7463765 10.26171875 59.16796875 C4.65171875 59.16796875 -0.95828125 59.16796875 -6.73828125 59.16796875 C-6.7633374 57.91137451 -6.78839355 56.65478027 -6.81420898 55.36010742 C-6.9083042 50.70277518 -7.00851984 46.04559134 -7.1105957 41.38842773 C-7.15393654 39.37186146 -7.19561223 37.35525868 -7.2355957 35.33862305 C-7.29331872 32.44178258 -7.35700747 29.54512569 -7.421875 26.6484375 C-7.43858749 25.74522263 -7.45529999 24.84200775 -7.47251892 23.91142273 C-7.50243675 22.65045525 -7.50243675 22.65045525 -7.53295898 21.36401367 C-7.55627541 20.25481819 -7.55627541 20.25481819 -7.58006287 19.12321472 C-7.6774035 16.95280165 -7.6774035 16.95280165 -8.73828125 14.16796875 C-10.75336483 13.43473079 -10.75336483 13.43473079 -12.73828125 13.16796875 C-12.73828125 12.50796875 -12.73828125 11.84796875 -12.73828125 11.16796875 C-14.32388518 11.42517549 -15.90674049 11.69935674 -17.48828125 11.98046875 C-18.37 12.13128906 -19.25171875 12.28210938 -20.16015625 12.4375 C-23.04047937 13.25359155 -24.58908747 14.08885737 -26.73828125 16.16796875 C-29.11913788 20.67929079 -29.08093804 24.99005395 -29.15234375 29.96875 C-29.1717099 30.80512497 -29.19107605 31.64149994 -29.21102905 32.5032196 C-29.27058317 35.16220045 -29.31711299 37.82122515 -29.36328125 40.48046875 C-29.40148331 42.28842984 -29.44053634 44.09637317 -29.48046875 45.90429688 C-29.57785939 50.32542591 -29.6576185 54.7463765 -29.73828125 59.16796875 C-35.34828125 59.16796875 -40.95828125 59.16796875 -46.73828125 59.16796875 C-46.73828125 39.03796875 -46.73828125 18.90796875 -46.73828125 -1.83203125 C-41.12828125 -1.83203125 -35.51828125 -1.83203125 -29.73828125 -1.83203125 C-29.73828125 -0.18203125 -29.73828125 1.46796875 -29.73828125 3.16796875 C-29.05121094 2.81863281 -28.36414063 2.46929687 -27.65625 2.109375 C-26.75519531 1.65433594 -25.85414063 1.19929687 -24.92578125 0.73046875 C-24.03246094 0.27800781 -23.13914062 -0.17445313 -22.21875 -0.640625 C-14.40791032 -4.39228815 -7.77707789 -3.26862694 0 0 Z " fill="#FCFAFB" transform="translate(679.73828125,136.83203125)"/>
<path d="M0 0 C6.78548303 5.67970061 11.51785441 12.29295498 13.26171875 21.08203125 C14.00928892 30.1745708 12.85324949 38.08313977 6.953125 45.234375 C0.31669853 52.48386627 -7.77188975 57.27609281 -17.74609375 58.28515625 C-27.53112302 58.50179896 -36.3571631 55.62935642 -43.73828125 49.08203125 C-51.05724732 40.49202336 -53.30348594 33.0828197 -53.10546875 21.83984375 C-52.23624493 12.94417023 -47.50604308 6.99711991 -41.14453125 0.99609375 C-29.31387714 -8.41465384 -12.27232912 -8.59588245 0 0 Z " fill="#FCFAFB" transform="translate(417.73828125,139.91796875)"/>
<path d="M0 0 C7.87429064 5.53115408 13.34015784 12.00653168 15.5859375 21.46875 C16.91466773 30.79938894 15.33099087 39.38995811 9.69140625 47 C3.47033024 54.35609912 -3.49669979 58.60083937 -13.22265625 59.453125 C-24.07320814 60.0276067 -32.6780687 58.49282555 -41.14453125 51.13671875 C-42.99813237 49.189462 -44.50890029 47.23457282 -46 45 C-46.43183594 44.36835938 -46.86367188 43.73671875 -47.30859375 43.0859375 C-51.6831327 35.24506838 -51.46105595 24.46491119 -49.1875 15.9609375 C-45.40559404 7.47791234 -38.51585702 1.89816507 -30.25 -2 C-20.10329553 -5.80340257 -9.52934222 -5.23760884 0 0 Z " fill="#FCFAFB" transform="translate(492,138)"/>
<path d="M0 0 C4.3951374 1.4949447 6.14779209 4.85019549 8.4375 8.625 C8.83219482 9.26163574 9.22688965 9.89827148 9.63354492 10.55419922 C10.4128939 11.81148263 11.1891217 13.07070719 11.96191406 14.33203125 C13.18861623 16.30306352 14.50432286 18.20742356 15.8125 20.125 C23.11256932 31.82026676 25.2607198 47.96146702 22.24609375 61.34765625 C19.19130503 70.056799 14.94404809 76.19176037 7 81 C-0.75202723 83.99201051 -7.06122604 83.59587162 -14.57421875 80.3125 C-22.49288733 76.02800299 -25.95281637 69.22235913 -29 61 C-31.76785756 51.52541065 -29.31614916 43.58369303 -25 35 C-22.41199184 30.75260762 -19.41858866 26.79921465 -16.40429688 22.84863281 C-14.42741398 20.24624107 -12.49862209 17.60959011 -10.56884766 14.97216797 C-9.63415203 13.69545657 -8.6965127 12.42089292 -7.75537109 11.14892578 C-5.05961213 7.4986491 -2.48778471 3.79531808 0 0 Z " fill="#FEFDFD" transform="translate(127,71)"/>
<path d="M0 0 C6.82312634 5.03266057 11.13789675 11.71901198 13 20 C13 24.29 13 28.58 13 33 C-2.84 33 -18.68 33 -35 33 C-32.86711958 38.33220105 -31.82642309 39.30913762 -27.23046875 42.05859375 C-22.33245323 44.12588226 -15.75857434 44.03875268 -10.80078125 42.171875 C-9.14262574 41.20791475 -7.56512965 40.1086335 -6 39 C-4.67353844 38.3197633 -3.34391123 37.64507739 -2 37 C-2 37.66 -2 38.32 -2 39 C-1.29875 39.0825 -0.5975 39.165 0.125 39.25 C3.65272947 40.17027725 6.06111614 41.88126977 9 44 C6.34730472 49.95876378 1.89972476 53.71829176 -4.03125 56.33984375 C-15.51651098 60.18193701 -25.97642497 60.47509119 -37 55 C-44.66853511 49.6309706 -50.18052525 43.37856529 -52 34 C-52.70871914 24.12440542 -52.6268931 15.24691933 -46.52734375 7.01171875 C-35.66042813 -4.98556161 -13.92170194 -8.94240709 0 0 Z " fill="#FCFAFB" transform="translate(921,139)"/>
<path d="M0 0 C5.61 0 11.22 0 17 0 C17 5.28 17 10.56 17 16 C20.96 16 24.92 16 29 16 C29 20.95 29 25.9 29 31 C25.04 31 21.08 31 17 31 C17.09360474 35.21792077 17.19971309 39.43528583 17.31738281 43.65258789 C17.35564866 45.08707068 17.39050581 46.52164865 17.421875 47.95629883 C17.46757862 50.01938878 17.52556193 52.08182495 17.5859375 54.14453125 C17.63306885 56.00621948 17.63306885 56.00621948 17.68115234 57.90551758 C17.77399209 61.16636101 17.77399209 61.16636101 20 64 C22.19454681 64.57993699 22.19454681 64.57993699 24.625 64.6875 C26.06875 64.790625 27.5125 64.89375 29 65 C29 69.95 29 74.9 29 80 C8.70751573 80.28989263 8.70751573 80.28989263 3 75 C0.12610805 69.57400653 -0.41465472 65.29915891 -0.29296875 59.22265625 C-0.28872391 58.41130722 -0.28447906 57.59995819 -0.28010559 56.76402283 C-0.26343867 54.19649744 -0.22581048 51.62978436 -0.1875 49.0625 C-0.1724376 47.31186037 -0.15875193 45.56120832 -0.14648438 43.81054688 C-0.11357468 39.54005608 -0.06187726 35.27016531 0 31 C-2.31 31 -4.62 31 -7 31 C-7 26.05 -7 21.1 -7 16 C-4.69 16 -2.38 16 0 16 C0 10.72 0 5.44 0 0 Z " fill="#FBFAFA" transform="translate(830,118)"/>
<path d="M0 0 C5.28 0 10.56 0 16 0 C16 27.72 16 55.44 16 84 C10.39 84 4.78 84 -1 84 C-1.02255075 73.19541543 -1.04091493 62.39084637 -1.05181217 51.58624363 C-1.05704107 46.5697753 -1.06413883 41.55332385 -1.07543945 36.53686523 C-1.0862681 31.69990306 -1.09227679 26.86295716 -1.09487724 22.02598381 C-1.09673153 20.17631715 -1.10035222 18.32665143 -1.10573006 16.47699165 C-1.1129402 13.89552986 -1.11399095 11.31413618 -1.11352539 8.73266602 C-1.11712067 7.96014999 -1.12071594 7.18763397 -1.12442017 6.39170837 C-1.11405216 1.11405216 -1.11405216 1.11405216 0 0 Z " fill="#FAF8F9" transform="translate(336,112)"/>
<path d="M0 0 C4.32669782 1.87761293 5.92374066 4.66580756 8.125 8.6875 C8.47175781 9.28755859 8.81851563 9.88761719 9.17578125 10.50585938 C13.35784021 17.96466569 15.13251253 25.47696758 14 34 C12.322791 39.13960181 10.14415042 42.93212627 6.1875 46.625 C1.01341641 48.85695763 -2.90394633 48.73978365 -8.1875 46.875 C-12.07196678 44.28535548 -14.88657021 41.22685959 -17 37 C-18.87307595 21.58726077 -8.88939336 11.42719466 0 0 Z " fill="#FEFDFD" transform="translate(168,130)"/>
<path d="M0 0 C4.22911168 2.31856352 6.94584413 5.33091987 9.5 9.375 C10.76235905 16.002385 10.56795612 21.31165557 7.20703125 27.2734375 C5.06372566 30.3392662 2.63459564 32.3236156 -0.8125 33.75 C-7.73901862 34.54160213 -11.52201681 34.38104127 -17.3046875 30.3671875 C-20.94436493 27.43196377 -22.72913049 24.49999232 -23.23828125 19.80078125 C-23.42249645 13.62472439 -22.69317696 9.05627382 -19 4 C-13.8449217 -1.28725979 -6.9337424 -1.26682261 0 0 Z " fill="#8F5266" transform="translate(558,149)"/>
<path d="M0 0 C4.40398565 1.66732364 7.15933334 3.89662501 10 7.625 C11.65568173 13.21292585 12.28802685 18.88215723 10.015625 24.3828125 C7.51056582 28.57337446 4.89212765 31.86380699 0.25 33.6875 C-6.66618134 34.64808074 -10.54225908 34.36699075 -16.3046875 30.3671875 C-19.39715458 27.87326243 -20.75271585 25.74185246 -22 22 C-22.68176052 15.23483795 -21.87941871 9.80554754 -17.6640625 4.234375 C-12.61913586 -1.03203623 -6.9443331 -1.22492878 0 0 Z " fill="#8B4B61" transform="translate(294,149)"/>
<path d="M0 0 C4.40483378 1.65795976 7.1617999 3.89986237 10 7.625 C11.77569171 13.61795954 11.85610436 19.43168692 9.875 25.375 C6.96666789 29.44666495 3.83965762 32.38678079 -1 34 C-7.83475813 34.52575063 -12.55765231 33.06242694 -17.8125 28.625 C-21.85619545 23.77256546 -22.45967241 19.62932525 -22.3125 13.4296875 C-21.83953843 9.75241132 -20.43254089 7.75261206 -18 5 C-17.175 4.05125 -16.35 3.1025 -15.5 2.125 C-10.99490287 -1.39675105 -5.38213072 -0.87468442 0 0 Z " fill="#92566A" transform="translate(783,149)"/>
<path d="M0 0 C4.98669007 2.49334503 8.49675474 5.99350949 11 11 C11.78190581 17.63502929 11.50991427 22.87304653 7.46875 28.33984375 C4.44459793 31.75810075 2.01121716 33.6805177 -2.58203125 34.41015625 C-8.27806251 34.71404848 -12.22464515 34.16292014 -16.6328125 30.4296875 C-21.30928587 25.5394325 -22.33383956 20.64395203 -22.2109375 14.01953125 C-21.71836382 9.30359433 -19.46972076 6.20840116 -16 3.1875 C-10.92570572 -0.51250625 -6.10064383 -0.68525173 0 0 Z " fill="#8E4F63" transform="translate(403,149)"/>
<path d="M0 0 C4.19621839 2.97620674 7.1005325 5.86243953 8.671875 10.87109375 C9.62549022 17.35326303 8.43853918 22.50055966 4.671875 27.87109375 C-0.10123141 32.4113657 -4.26428639 33.34698464 -10.6875 33.28125 C-15.26191392 32.57072713 -18.18414481 30.15078531 -21.328125 26.87109375 C-24.68970537 22.14387135 -25.18566117 17.50224792 -24.328125 11.87109375 C-22.58563988 6.55932461 -20.09938781 2.92959555 -15.328125 -0.12890625 C-10.24725827 -1.82252849 -4.9358563 -2.39339341 0 0 Z " fill="#8E5065" transform="translate(482.328125,150.12890625)"/>
<path d="M0 0 C2.97 0 5.94 0 9 0 C9 3.3 9 6.6 9 10 C10.629375 9.979375 12.25875 9.95875 13.9375 9.9375 C15.62499341 9.91613932 17.31391034 9.92794489 19 10 C20 11 20 11 20.09765625 12.84765625 C20.06510417 14.8984375 20.03255208 16.94921875 20 19 C16.37 19 12.74 19 9 19 C9 22.63 9 26.26 9 30 C6.03 30 3.06 30 0 30 C0 26.37 0 22.74 0 19 C-3.63 19 -7.26 19 -11 19 C-11 16.36 -11 13.72 -11 11 C-7.37 11 -3.74 11 0 11 C0 7.37 0 3.74 0 0 Z " fill="#93566A" transform="translate(119,110)"/>
<path d="M0 0 C3.95666126 1.97833063 6.76474278 4.15039035 9 8 C9 8.99 9 9.98 9 11 C-0.9 11 -10.8 11 -21 11 C-17.01678072 1.04195181 -10.19834258 -1.05152402 0 0 Z " fill="#94596D" transform="translate(907,149)"/>
</svg>
