<?xml version="1.0" encoding="UTF-8"?>
<svg version="1.1" xmlns="http://www.w3.org/2000/svg" width="512" height="512">
<path d="M0 0 C1.26070312 0.39058594 2.52140625 0.78117188 3.8203125 1.18359375 C28.24978197 9.24283071 47.41100304 26.55492891 59.30029297 49.19335938 C66.21019306 63.10590989 69.28891289 78.11890775 69.2734375 93.58203125 C69.29370358 95.7519585 69.31455388 97.92188035 69.3359375 100.09179688 C69.35860978 103.46676257 69.37504994 106.84151408 69.38085938 110.21655273 C69.3903751 113.50542457 69.42410761 116.79336775 69.4609375 120.08203125 C69.45336929 121.59154106 69.45336929 121.59154106 69.44564819 123.13154602 C69.52808622 129.00558438 70.17536703 132.2842924 74 137 C76.99624135 144.79022752 77.07288477 153.02950101 74.09375 160.8359375 C70.70977388 167.53137596 65.61629797 172.04298134 58.84375 175.16796875 C53.62316683 176.6954196 48.37907008 176.37940149 43 176 C42.98582031 176.76441406 42.97164062 177.52882812 42.95703125 178.31640625 C42.06516263 198.34729344 33.08466387 214.24234326 19 228 C18.34 228.33 17.68 228.66 17 229 C16.67 238.24 16.34 247.48 16 257 C20.455 258.485 20.455 258.485 25 260 C28.00693393 261.09941022 31.00590323 262.21072612 34 263.34375 C34.85365143 263.6653862 35.70730286 263.9870224 36.58682251 264.31840515 C39.39212635 265.37654276 42.1962226 266.4378247 45 267.5 C46.45149445 268.0495787 46.45149445 268.0495787 47.93231201 268.61026001 C55.29147652 271.39827284 62.64629144 274.19763343 70 277 C71.10508911 277.42069763 72.21017822 277.84139526 73.34875488 278.27484131 C80.03784605 280.82217362 86.72298286 283.37950255 93.40332031 285.94970703 C95.53285999 286.7678918 97.6633799 287.58353029 99.79492188 288.39648438 C114.98595667 294.19495507 128.29375686 299.3339155 140 311 C140.63808594 311.61488281 141.27617187 312.22976563 141.93359375 312.86328125 C187.37975766 360.13134037 157 443.42848769 157 509 C34.9 509 -87.2 509 -213 509 C-213 328.58522727 -213 328.58522727 -196.26171875 311.23828125 C-195.14216797 310.13033203 -195.14216797 310.13033203 -194 309 C-193.11248047 308.06220703 -193.11248047 308.06220703 -192.20703125 307.10546875 C-179.80480867 294.97702592 -159.86575014 289.91708917 -144.0625 284 C-140.40478521 282.61956119 -136.7482875 281.23593433 -133.09190369 279.85197449 C-130.63705312 278.92286462 -128.18186339 277.99465037 -125.72633362 277.06733704 C-114.13998251 272.68817533 -102.5953369 268.20540794 -91.0625 263.6875 C-90.17789093 263.34130615 -89.29328186 262.9951123 -88.38186646 262.63842773 C-83.58677108 260.76183348 -78.79314084 258.88159388 -74 257 C-73.67 247.43 -73.34 237.86 -73 228 C-74.32 227.34 -75.64 226.68 -77 226 C-90.70851567 213.52834288 -97.96806835 196.704142 -98.921875 178.38671875 C-98.94765625 177.59910156 -98.9734375 176.81148437 -99 176 C-100.23363281 176.08701172 -100.23363281 176.08701172 -101.4921875 176.17578125 C-110.64613174 176.54574435 -117.10405175 175.34064221 -124.06640625 169.16796875 C-129.64300295 163.26539145 -132.09308999 157.65895552 -132.375 149.5625 C-132.19242581 143.5790458 -131.42201656 137.34157308 -126.96386719 133.03149414 C-124.07807402 128.57688278 -124.47177235 124.62523399 -124.53125 119.42578125 C-124.52420044 118.38793991 -124.51715088 117.35009857 -124.5098877 116.2808075 C-124.48058059 111.85984236 -124.49682656 107.43932304 -124.50927734 103.01831055 C-124.532229 72.34801437 -117.39806135 45.87850869 -95.4765625 23.4140625 C-70.72979575 -0.17156563 -33.14540484 -10.8693784 0 0 Z " fill="#EEEEED" transform="translate(284,3)"/>
<path d="M0 0 C1.26070312 0.39058594 2.52140625 0.78117188 3.8203125 1.18359375 C28.24978197 9.24283071 47.41100304 26.55492891 59.30029297 49.19335938 C66.21019306 63.10590989 69.28891289 78.11890775 69.2734375 93.58203125 C69.29370358 95.7519585 69.31455388 97.92188035 69.3359375 100.09179688 C69.35860978 103.46676257 69.37504994 106.84151408 69.38085938 110.21655273 C69.3903751 113.50542457 69.42410761 116.79336775 69.4609375 120.08203125 C69.45336929 121.59154106 69.45336929 121.59154106 69.44564819 123.13154602 C69.52808622 129.00558438 70.17536703 132.2842924 74 137 C76.99624135 144.79022752 77.07288477 153.02950101 74.09375 160.8359375 C70.70977388 167.53137596 65.61629797 172.04298134 58.84375 175.16796875 C53.62316683 176.6954196 48.37907008 176.37940149 43 176 C42.98582031 176.76441406 42.97164062 177.52882812 42.95703125 178.31640625 C42.06516263 198.34729344 33.08466387 214.24234326 19 228 C18.34 228.33 17.68 228.66 17 229 C17.16346924 229.68473389 17.32693848 230.36946777 17.49536133 231.07495117 C19.28268422 240.11718352 19.9831518 249.47592058 16 258 C7.94271407 270.00078685 -3.91572699 279.82699435 -14.70507812 289.30656433 C-19.22295186 293.27683665 -23.19579288 297.33677837 -27 302 C-30.88416538 300.21432291 -32.9306694 298.03163974 -35.73828125 294.77734375 C-40.13380909 289.80116644 -44.83591392 285.405612 -49.85546875 281.06640625 C-73.82937095 259.91578257 -73.82937095 259.91578257 -75.015625 248.53125 C-75.42374033 241.61617734 -74.52728613 234.73749204 -73 228 C-73.61713867 227.70899414 -74.23427734 227.41798828 -74.87011719 227.11816406 C-85.55357063 221.50947347 -92.74878454 206.42403381 -96.4375 195.4375 C-98.23117472 189.02135958 -98.78263579 182.64047655 -99 176 C-100.23363281 176.08701172 -100.23363281 176.08701172 -101.4921875 176.17578125 C-110.64613174 176.54574435 -117.10405175 175.34064221 -124.06640625 169.16796875 C-129.64300295 163.26539145 -132.09308999 157.65895552 -132.375 149.5625 C-132.19242581 143.5790458 -131.42201656 137.34157308 -126.96386719 133.03149414 C-124.07807402 128.57688278 -124.47177235 124.62523399 -124.53125 119.42578125 C-124.52420044 118.38793991 -124.51715088 117.35009857 -124.5098877 116.2808075 C-124.48058059 111.85984236 -124.49682656 107.43932304 -124.50927734 103.01831055 C-124.532229 72.34801437 -117.39806135 45.87850869 -95.4765625 23.4140625 C-70.72979575 -0.17156563 -33.14540484 -10.8693784 0 0 Z " fill="#FDD099" transform="translate(284,3)"/>
<path d="M0 0 C1.26070313 0.39058594 2.52140625 0.78117188 3.8203125 1.18359375 C28.24978197 9.24283071 47.41100304 26.55492891 59.30029297 49.19335938 C66.24356914 63.17311006 69.35337378 78.2504564 69.1953125 93.79296875 C69.1924826 94.86501053 69.18965271 95.93705231 69.18673706 97.0415802 C69.17565375 100.4236731 69.15057195 103.80548884 69.125 107.1875 C69.11495487 109.49804302 69.10583172 111.80859024 69.09765625 114.11914062 C69.07575341 119.74618632 69.04239627 125.37307335 69 131 C68.33613281 130.59007812 67.67226563 130.18015625 66.98828125 129.7578125 C66.10527344 129.21898437 65.22226562 128.68015625 64.3125 128.125 C63.44238281 127.59132812 62.57226562 127.05765625 61.67578125 126.5078125 C57.15015401 123.95760503 53.36518262 122.74929031 48.1875 122.375 C46.72376953 122.26285156 46.72376953 122.26285156 45.23046875 122.1484375 C44.12638672 122.07496094 44.12638672 122.07496094 43 122 C43.05542969 121.15179688 43.11085938 120.30359375 43.16796875 119.4296875 C43.23166668 107.83666463 38.70459221 102.12991359 31 94 C30.45682129 93.4234668 29.91364258 92.84693359 29.35400391 92.25292969 C23.1172642 85.61783608 23.1172642 85.61783608 16 80 C9.85057983 80.0661228 4.87211427 83.60357233 -0.3125 86.5625 C-32.30301077 104.33852355 -62.40428849 111.48152252 -99 111 C-99 114.63 -99 118.26 -99 122 C-100.629375 122.0825 -102.25875 122.165 -103.9375 122.25 C-111.72442885 122.95152512 -117.40502313 126.02399643 -124 130 C-124.1029022 123.35137429 -124.17208219 116.70295971 -124.21972656 110.05371094 C-124.239625 107.80005217 -124.26675366 105.54644351 -124.30175781 103.29296875 C-124.74402081 74.05158016 -118.37955046 47.97274007 -98 26 C-73.22985557 0.61635354 -34.44802325 -11.29654628 0 0 Z " fill="#414451" transform="translate(284,3)"/>
<path d="M0 0 C21.78 0 43.56 0 66 0 C66 25.08 66 50.16 66 76 C44.22 76 22.44 76 0 76 C0 50.92 0 25.84 0 0 Z " fill="#F3BB87" transform="translate(375,436)"/>
<path d="M0 0 C21.78 0 43.56 0 66 0 C66 25.08 66 50.16 66 76 C44.22 76 22.44 76 0 76 C0 50.92 0 25.84 0 0 Z " fill="#F3BB87" transform="translate(71,436)"/>
<path d="M0 0 C3.07685557 1.32202594 4.66901085 2.50633879 6.48046875 5.31640625 C7.13668213 6.32622559 7.13668213 6.32622559 7.80615234 7.35644531 C8.26199707 8.08444336 8.7178418 8.81244141 9.1875 9.5625 C9.90607178 10.69510254 9.90607178 10.69510254 10.63916016 11.85058594 C22.9631223 31.55096397 36.2217862 55.0503817 31.37890625 79.08203125 C28.33405433 88.75789403 22.06232508 95.44616157 13.17578125 100.125 C6.19364191 102.93289805 -2.09851222 103.33221534 -9.203125 100.90625 C-18.62418035 96.45610325 -25.22706136 90.83803893 -29 81 C-33.94586727 66.09601071 -28.2871913 47.63781237 -21.6875 34.2734375 C-21.130625 33.19320312 -20.57375 32.11296875 -20 31 C-19.39562392 29.78395822 -18.79146448 28.56780876 -18.1875 27.3515625 C-13.31823183 17.73245634 -7.6759177 7.6759177 0 0 Z " fill="#EE5362" transform="translate(310,327)"/>
<path d="M0 0 C3.49310955 1.35668101 6.52671613 2.85836764 9.6875 4.875 C25.06666938 14.24418194 43.17474388 16.8540249 60.82421875 13.125 C71.05227526 10.50638134 80.23804793 5.84130138 89 0 C91.67266459 9.44489662 93.12385992 19.79920494 89 29 C80.51288831 41.86793372 67.59011443 52.19553686 56.07763672 62.26904297 C52.33943294 65.5864834 49.1560492 69.12783552 46 73 C42.11732591 71.21472196 40.06932354 69.03362657 37.26171875 65.78125 C32.86145524 60.80165407 28.15706951 56.38759899 23.14453125 52.03125 C-0.8296658 30.78414915 -0.8296658 30.78414915 -2.015625 19.75390625 C-2.25524264 13.03624883 -1.54736353 6.53732294 0 0 Z " fill="#F4BB87" transform="translate(211,232)"/>
<path d="M0 0 C0.33 0 0.66 0 1 0 C1 21.45 1 42.9 1 65 C-17.37100213 65 -17.37100213 65 -25.0625 58.16796875 C-30.64527815 52.27115933 -33.0931427 46.65744176 -33.375 38.5625 C-33.14876114 31.14803546 -31.43780152 24.29470148 -26 19 C-17.28625799 12.34828854 -10.90336588 10.73406425 0 11 C0 7.37 0 3.74 0 0 Z " fill="#F2BA86" transform="translate(185,114)"/>
<path d="M0 0 C0.33 0 0.66 0 1 0 C1 4.62 1 9.24 1 14 C2.5675 13.87625 4.135 13.7525 5.75 13.625 C14.67836291 13.60192929 22.45430496 18.1468529 29 24 C30.328125 26 30.328125 26 31.25 28 C31.56453125 28.66 31.8790625 29.32 32.203125 30 C35.13272204 37.35271413 34.9036691 45.47290875 32.09375 52.8359375 C28.09517129 60.74741109 22.18541995 64.98927082 14 68 C9.38 68 4.76 68 0 68 C0 45.56 0 23.12 0 0 Z " fill="#F2BA86" transform="translate(326,111)"/>
<path d="M0 0 C3.3 0 6.6 0 10 0 C10 3.3 10 6.6 10 10 C13.3 10 16.6 10 20 10 C20 13.3 20 16.6 20 20 C16.7 20 13.4 20 10 20 C10 23.63 10 27.26 10 31 C6.7 31 3.4 31 0 31 C0 27.37 0 23.74 0 20 C-3.3 20 -6.6 20 -10 20 C-10 17.03 -10 14.06 -10 11 C-6.7 11 -3.4 11 0 11 C0 7.37 0 3.74 0 0 Z " fill="#EEE9E9" transform="translate(306,381)"/>
</svg>
